<svg xmlns="http://www.w3.org/2000/svg" viewBox="0 0 304.79 128.15"><defs><style>.cls-1{fill:#3fa9f5;}.cls-2{fill:#7ac943;}.cls-3{fill:#ff931e;}.cls-4{fill:#ff1d25;}</style></defs><title>Asset 8</title><g id="Layer_2" data-name="Layer 2"><g id="Layer_1-2" data-name="Layer 1"><path d="M2.64,12.52l-.28-.63a2.82,2.82,0,0,0,1.12-.81,2,2,0,0,0,.4-1.19l-.12,0H3.65A1,1,0,0,1,3,9.69.8.8,0,0,1,2.71,9,.85.85,0,0,1,3,8.33a1.07,1.07,0,0,1,.67-.23.91.91,0,0,1,.81.41,2.05,2.05,0,0,1,.27,1.13,2.8,2.8,0,0,1-.56,1.78A3.45,3.45,0,0,1,2.64,12.52Zm1-6.71a.94.94,0,0,1-.69-.28,1,1,0,0,1-.28-.73,1,1,0,0,1,.28-.74.94.94,0,0,1,.69-.28.94.94,0,0,1,.69.28,1,1,0,0,1,.28.74,1,1,0,0,1-.28.73A.94.94,0,0,1,3.6,5.81Z" transform="translate(-2.36 -1.27)"/><path d="M18.06,10.1a3.92,3.92,0,0,1-1.59-.31,4.1,4.1,0,0,1-1.27-.85l.6-.7a3.46,3.46,0,0,0,1,.72,3,3,0,0,0,1.27.27,2,2,0,0,0,1.26-.35,1.08,1.08,0,0,0,.45-.9,1.22,1.22,0,0,0-.1-.53,1.35,1.35,0,0,0-.3-.37A2.46,2.46,0,0,0,19,6.8l-.56-.25-1.13-.49a5.48,5.48,0,0,1-.6-.29,2.71,2.71,0,0,1-.55-.41,2.16,2.16,0,0,1-.4-.57A1.81,1.81,0,0,1,15.58,4a1.84,1.84,0,0,1,.19-.83,2.09,2.09,0,0,1,.53-.66,2.39,2.39,0,0,1,.82-.44,3.52,3.52,0,0,1,2.4.11,3.34,3.34,0,0,1,1.06.71l-.53.64A2.92,2.92,0,0,0,19.2,3a2.77,2.77,0,0,0-1.08-.2,1.77,1.77,0,0,0-1.1.31A1,1,0,0,0,16.6,4a.94.94,0,0,0,.12.49,1.21,1.21,0,0,0,.33.35,1.94,1.94,0,0,0,.45.25l.5.22,1.1.48a6.13,6.13,0,0,1,.68.33,2.38,2.38,0,0,1,.55.43,2.08,2.08,0,0,1,.38.58,2,2,0,0,1,.13.76,2.05,2.05,0,0,1-.19.88,2.1,2.1,0,0,1-.55.71,2.74,2.74,0,0,1-.88.48A3.49,3.49,0,0,1,18.06,10.1Z" transform="translate(-2.36 -1.27)"/><path d="M24.55,10.1a2.43,2.43,0,0,1-.77-.11,2.08,2.08,0,0,1-.63-.32,1.51,1.51,0,0,1-.42-.52,1.45,1.45,0,0,1-.16-.7,1.6,1.6,0,0,1,.23-.86A2,2,0,0,1,23.55,7a5,5,0,0,1,1.31-.43,18.18,18.18,0,0,1,1.94-.27,2.05,2.05,0,0,0-.1-.56,1.24,1.24,0,0,0-.27-.46A1.26,1.26,0,0,0,26,4.92a1.88,1.88,0,0,0-.71-.12A2.82,2.82,0,0,0,24.14,5a6.7,6.7,0,0,0-.93.48l-.39-.68.51-.29A6,6,0,0,1,24,4.26a4.77,4.77,0,0,1,.7-.2A3.84,3.84,0,0,1,25.42,4a2.25,2.25,0,0,1,1.78.66,2.51,2.51,0,0,1,.58,1.74V10H27l-.08-.79h0a5.76,5.76,0,0,1-1.08.66A2.92,2.92,0,0,1,24.55,10.1Zm.26-.79a2.3,2.3,0,0,0,1-.22,4.52,4.52,0,0,0,1-.64V6.91a12.29,12.29,0,0,0-1.57.21,4.19,4.19,0,0,0-1,.31,1.4,1.4,0,0,0-.53.42.9.9,0,0,0-.16.53.79.79,0,0,0,.11.42.86.86,0,0,0,.28.29,1.26,1.26,0,0,0,.41.17A2.61,2.61,0,0,0,24.81,9.31Z" transform="translate(-2.36 -1.27)"/><path d="M29.49,10V4.13h.8l.08.77h0a2.26,2.26,0,0,1,.53-.66A1.21,1.21,0,0,1,31.73,4c.57,0,.93.34,1.1,1a2.61,2.61,0,0,1,.56-.74A1.17,1.17,0,0,1,34.2,4a1.1,1.1,0,0,1,.95.47,2.18,2.18,0,0,1,.34,1.33V10h-1V5.86c0-.68-.21-1-.62-1a.64.64,0,0,0-.51.22,4.09,4.09,0,0,0-.43.68V10H32V5.86a1.73,1.73,0,0,0-.14-.77.48.48,0,0,0-.46-.25.69.69,0,0,0-.53.22,2.5,2.5,0,0,0-.43.68V10Z" transform="translate(-2.36 -1.27)"/><path d="M37.11,12.42V4.13h.82l.08.74h0A3.6,3.6,0,0,1,39,4.24,2.52,2.52,0,0,1,40.07,4a2.4,2.4,0,0,1,1,.21,2,2,0,0,1,.76.6,2.75,2.75,0,0,1,.46.94A4.22,4.22,0,0,1,42.48,7a3.67,3.67,0,0,1-.22,1.33,3.23,3.23,0,0,1-.58,1,2.42,2.42,0,0,1-.85.61,2.46,2.46,0,0,1-1,.21,2.34,2.34,0,0,1-.89-.19,3,3,0,0,1-.85-.56h0l.05,1.1v2Zm2.55-3.14A1.58,1.58,0,0,0,41,8.66,2.56,2.56,0,0,0,41.46,7a3.49,3.49,0,0,0-.1-.88,1.86,1.86,0,0,0-.29-.67A1.28,1.28,0,0,0,40.56,5a1.6,1.6,0,0,0-.75-.16A1.92,1.92,0,0,0,39,5a3.19,3.19,0,0,0-.89.67v2.9a2.61,2.61,0,0,0,.84.53A2.25,2.25,0,0,0,39.66,9.28Z" transform="translate(-2.36 -1.27)"/><path d="M48.08,10.1a1.87,1.87,0,0,1-1.43-.52A2.3,2.3,0,0,1,46.16,8V2.22H44.09v-.8h3.06V8.08a1.2,1.2,0,0,0,.31.93,1.25,1.25,0,0,0,.84.28A2.57,2.57,0,0,0,49.39,9l.25.74a6.47,6.47,0,0,1-.74.25A3.26,3.26,0,0,1,48.08,10.1Z" transform="translate(-2.36 -1.27)"/><path d="M54.36,10.1a3.53,3.53,0,0,1-1.23-.2,3.07,3.07,0,0,1-1-.6,2.81,2.81,0,0,1-.67-1A3.31,3.31,0,0,1,51.21,7a3.23,3.23,0,0,1,.25-1.27,2.74,2.74,0,0,1,.66-1,3,3,0,0,1,1-.61,3.16,3.16,0,0,1,2.24,0,2.34,2.34,0,0,1,.84.56,2.42,2.42,0,0,1,.52.86,3.33,3.33,0,0,1,.18,1.12c0,.11,0,.22,0,.32s0,.2,0,.28h-4.6a2,2,0,0,0,.73,1.49,2.36,2.36,0,0,0,1.54.5,2.83,2.83,0,0,0,1-.15,3.66,3.66,0,0,0,.82-.4l.36.65a4.57,4.57,0,0,1-1,.49A3.55,3.55,0,0,1,54.36,10.1Zm-.15-5.34a2,2,0,0,0-.69.12,2,2,0,0,0-.59.35,1.72,1.72,0,0,0-.44.55,2.59,2.59,0,0,0-.26.77H56a1.94,1.94,0,0,0-.52-1.34A1.67,1.67,0,0,0,54.21,4.76Z" transform="translate(-2.36 -1.27)"/><path d="M68.46,10.1a3.92,3.92,0,0,1-1.59-.31,4,4,0,0,1-1.27-.85l.6-.7a3.54,3.54,0,0,0,1,.72,3.06,3.06,0,0,0,1.28.27,2,2,0,0,0,1.26-.35,1.19,1.19,0,0,0,.34-1.43,1.07,1.07,0,0,0-.3-.37,2.16,2.16,0,0,0-.45-.28l-.56-.25-1.12-.49a5.48,5.48,0,0,1-.6-.29,2.71,2.71,0,0,1-.55-.41,2,2,0,0,1-.4-.57A1.81,1.81,0,0,1,66,4a1.85,1.85,0,0,1,.2-.83,2,2,0,0,1,.53-.66,2.44,2.44,0,0,1,.81-.44,3.49,3.49,0,0,1,1-.16,3.38,3.38,0,0,1,1.37.27A3.34,3.34,0,0,1,71,2.92l-.53.64A3.06,3.06,0,0,0,69.6,3a2.77,2.77,0,0,0-1.08-.2,1.8,1.8,0,0,0-1.11.31A1,1,0,0,0,67,4a.94.94,0,0,0,.13.49,1.32,1.32,0,0,0,.32.35,2.46,2.46,0,0,0,.45.25l.51.22,1.1.48a6.13,6.13,0,0,1,.68.33,2.38,2.38,0,0,1,.55.43,1.85,1.85,0,0,1,.37.58,1.81,1.81,0,0,1,.14.76,2.05,2.05,0,0,1-.19.88,2.1,2.1,0,0,1-.55.71,2.74,2.74,0,0,1-.88.48A3.49,3.49,0,0,1,68.46,10.1Z" transform="translate(-2.36 -1.27)"/><path d="M73.18,10V2.09h2.24a4.63,4.63,0,0,1,1.09.11,2.57,2.57,0,0,1,.86.33,1.59,1.59,0,0,1,.55.6,1.82,1.82,0,0,1,.2.88,1.76,1.76,0,0,1-.34,1.06,1.71,1.71,0,0,1-1,.65v0a2.42,2.42,0,0,1,1.34.6,1.71,1.71,0,0,1,.48,1.29,2.23,2.23,0,0,1-.21,1,2,2,0,0,1-.61.72,2.64,2.64,0,0,1-.94.44,4.94,4.94,0,0,1-1.2.14Zm1-4.56h1.07a2.57,2.57,0,0,0,1.45-.32,1.16,1.16,0,0,0,.43-1,.93.93,0,0,0-.46-.9,2.8,2.8,0,0,0-1.37-.26H74.18Zm0,3.72h1.27A3,3,0,0,0,77,8.77a1.29,1.29,0,0,0,.56-1.16A1.12,1.12,0,0,0,77,6.56a3.21,3.21,0,0,0-1.59-.32H74.18Z" transform="translate(-2.36 -1.27)"/><path d="M80.42,10V2.09H82.8A5.35,5.35,0,0,1,84,2.21a2.54,2.54,0,0,1,.93.39,1.86,1.86,0,0,1,.59.71,2.55,2.55,0,0,1,.21,1.09,2.54,2.54,0,0,1-.21,1.08,2,2,0,0,1-.6.76,2.72,2.72,0,0,1-.92.45,4.38,4.38,0,0,1-1.18.15H81.42V10Zm1-3.94h1.26a2.44,2.44,0,0,0,1.53-.39A1.47,1.47,0,0,0,84.7,4.4a1.3,1.3,0,0,0-.5-1.18,2.81,2.81,0,0,0-1.52-.33H81.42Z" transform="translate(-2.36 -1.27)"/><path d="M88,10V2.09h1v7h3.9V10Z" transform="translate(-2.36 -1.27)"/><path d="M102,10V2.09h2.38a5.42,5.42,0,0,1,1.18.12,2.61,2.61,0,0,1,.93.39,1.86,1.86,0,0,1,.59.71,2.55,2.55,0,0,1,.21,1.09,2.54,2.54,0,0,1-.21,1.08,2,2,0,0,1-.6.76,2.72,2.72,0,0,1-.92.45,4.38,4.38,0,0,1-1.18.15H103V10ZM103,6h1.26a2.46,2.46,0,0,0,1.53-.39,1.47,1.47,0,0,0,.49-1.23,1.3,1.3,0,0,0-.5-1.18,2.81,2.81,0,0,0-1.52-.33H103Z" transform="translate(-2.36 -1.27)"/><path d="M109.75,10V4.13h.81l.09,1.38h0a3.55,3.55,0,0,1,1.13-1.12A2.77,2.77,0,0,1,113.29,4a2.91,2.91,0,0,1,.6.06,2.36,2.36,0,0,1,.55.18l-.23.86a3.59,3.59,0,0,0-.52-.16,2.75,2.75,0,0,0-.56,0,2.35,2.35,0,0,0-1.26.38,3.51,3.51,0,0,0-1.14,1.29V10Z" transform="translate(-2.36 -1.27)"/><path d="M118.8,10.1a2.9,2.9,0,0,1-1.1-.2,2.69,2.69,0,0,1-1.55-1.55,3.3,3.3,0,0,1-.23-1.29,3.37,3.37,0,0,1,.23-1.31,2.67,2.67,0,0,1,.63-1,2.45,2.45,0,0,1,.92-.6A2.91,2.91,0,0,1,118.8,4a2.86,2.86,0,0,1,1.09.21,2.45,2.45,0,0,1,.92.6,2.67,2.67,0,0,1,.63,1,3.36,3.36,0,0,1,.24,1.31,3.3,3.3,0,0,1-.24,1.29,2.69,2.69,0,0,1-1.55,1.55A2.85,2.85,0,0,1,118.8,10.1Zm0-.81a1.88,1.88,0,0,0,.76-.16,1.75,1.75,0,0,0,.59-.46,2.23,2.23,0,0,0,.37-.7,3.06,3.06,0,0,0,0-1.83,2.23,2.23,0,0,0-.37-.72,1.75,1.75,0,0,0-.59-.46A1.91,1.91,0,0,0,118,5a1.62,1.62,0,0,0-.58.46,2.06,2.06,0,0,0-.38.72,2.92,2.92,0,0,0-.13.92,2.9,2.9,0,0,0,.13.91,2.06,2.06,0,0,0,.38.7,1.62,1.62,0,0,0,.58.46A1.89,1.89,0,0,0,118.8,9.29Z" transform="translate(-2.36 -1.27)"/><path d="M125.3,10v-5h-1.67V4.19l1.67-.06V3.64a2.5,2.5,0,0,1,.57-1.72,2.25,2.25,0,0,1,1.78-.65,4.24,4.24,0,0,1,1.68.34l-.23.74a3,3,0,0,0-.66-.22,3.73,3.73,0,0,0-.69,0,1.42,1.42,0,0,0-1.14.4,1.72,1.72,0,0,0-.34,1.12v.53h2.45v.8h-2.45v5Z" transform="translate(-2.36 -1.27)"/><path d="M133.39,10v-5h-2.71v-.8h3.69V10Zm.38-7.06a.79.79,0,0,1-.56-.21.68.68,0,0,1-.23-.55.69.69,0,0,1,.23-.56.79.79,0,0,1,.56-.21.84.84,0,0,1,.57.21.72.72,0,0,1,.22.56.71.71,0,0,1-.22.55A.84.84,0,0,1,133.77,2.9Z" transform="translate(-2.36 -1.27)"/><path d="M141.68,10.1a1.86,1.86,0,0,1-1.43-.52A2.25,2.25,0,0,1,139.76,8V2.22h-2.08v-.8h3.06V8.08a1.24,1.24,0,0,0,.31.93,1.25,1.25,0,0,0,.84.28A2.61,2.61,0,0,0,143,9l.25.74a6,6,0,0,1-.75.25A3.12,3.12,0,0,1,141.68,10.1Z" transform="translate(-2.36 -1.27)"/><path d="M148,10.1a3.53,3.53,0,0,1-1.23-.2,2.92,2.92,0,0,1-1-.6,2.68,2.68,0,0,1-.67-1,3.14,3.14,0,0,1-.25-1.3,3.06,3.06,0,0,1,.25-1.27,2.74,2.74,0,0,1,.66-1,2.93,2.93,0,0,1,.94-.61,3.19,3.19,0,0,1,2.25,0,2.34,2.34,0,0,1,.84.56,2.42,2.42,0,0,1,.52.86,3.33,3.33,0,0,1,.18,1.12c0,.11,0,.22,0,.32a1.88,1.88,0,0,1,0,.28h-4.59a2,2,0,0,0,.72,1.49,2.37,2.37,0,0,0,1.54.5,2.89,2.89,0,0,0,1-.15,3.88,3.88,0,0,0,.82-.4l.36.65a5.07,5.07,0,0,1-1,.49A3.57,3.57,0,0,1,148,10.1Zm-.14-5.34a2,2,0,0,0-.69.12,1.85,1.85,0,0,0-.59.35,1.75,1.75,0,0,0-.45.55,2.58,2.58,0,0,0-.25.77h3.72A1.94,1.94,0,0,0,149,5.21,1.69,1.69,0,0,0,147.81,4.76Z" transform="translate(-2.36 -1.27)"/><path d="M154.79,5.81a.94.94,0,0,1-.69-.28,1,1,0,0,1-.28-.73,1,1,0,0,1,.28-.74.94.94,0,0,1,.69-.28.9.9,0,0,1,.69.28,1,1,0,0,1,.29.74,1,1,0,0,1-.29.73A.9.9,0,0,1,154.79,5.81Zm0,4.29a1,1,0,0,1-.69-.27,1.1,1.1,0,0,1,0-1.47.94.94,0,0,1,.69-.28.9.9,0,0,1,.69.28,1.08,1.08,0,0,1,0,1.47A.93.93,0,0,1,154.79,10.1Z" transform="translate(-2.36 -1.27)"/><path class="cls-1" d="M166,10l2.65-7.87h1.13L172.41,10h-1.06l-.74-2.4h-2.85L167,10Zm2.4-4.4L168,6.76h2.35L170,5.56c-.14-.44-.27-.88-.4-1.32s-.26-.88-.38-1.34h-.05c-.13.46-.26.91-.39,1.34S168.51,5.12,168.38,5.56Z" transform="translate(-2.36 -1.27)"/><path class="cls-1" d="M177,10.1a3.72,3.72,0,0,1-1.27-.2,3,3,0,0,1-1-.59,2.64,2.64,0,0,1-.67-1,3.3,3.3,0,0,1-.24-1.29A3.19,3.19,0,0,1,174,5.75a2.73,2.73,0,0,1,.71-1,2.8,2.8,0,0,1,1-.6A3.79,3.79,0,0,1,177,4a2.8,2.8,0,0,1,1.24.26,3,3,0,0,1,.88.6l-.49.63a3.11,3.11,0,0,0-.75-.49A2,2,0,0,0,177,4.8a2.51,2.51,0,0,0-.92.16,1.94,1.94,0,0,0-.71.46,2.09,2.09,0,0,0-.47.72,2.43,2.43,0,0,0-.16.92,2.42,2.42,0,0,0,.16.91,2.21,2.21,0,0,0,.45.7,2.12,2.12,0,0,0,.71.46,2.69,2.69,0,0,0,.92.16,2.31,2.31,0,0,0,1-.21,3.74,3.74,0,0,0,.81-.52l.44.63a3.68,3.68,0,0,1-1.08.67A3.21,3.21,0,0,1,177,10.1Z" transform="translate(-2.36 -1.27)"/><path class="cls-1" d="M184.72,10.1a2.74,2.74,0,0,1-1.06-.17,1.8,1.8,0,0,1-.7-.49,1.94,1.94,0,0,1-.38-.76,4.35,4.35,0,0,1-.11-1V4.93h-1.65V4.19l1.68-.06.14-1.87h.81V4.13h2.87v.8h-2.87V7.7a3.34,3.34,0,0,0,.07.69,1.23,1.23,0,0,0,.24.5,1.07,1.07,0,0,0,.46.31,2.09,2.09,0,0,0,.71.1,3.42,3.42,0,0,0,.75-.07,4.45,4.45,0,0,0,.65-.19l.22.72c-.27.09-.54.17-.84.24A4.25,4.25,0,0,1,184.72,10.1Z" transform="translate(-2.36 -1.27)"/><path class="cls-1" d="M191,10v-5h-2.71v-.8H192V10Zm.38-7.06a.79.79,0,0,1-.56-.21.72.72,0,0,1-.23-.55.72.72,0,0,1,.23-.56.79.79,0,0,1,.56-.21.82.82,0,0,1,.57.21.72.72,0,0,1,.22.56.71.71,0,0,1-.22.55A.82.82,0,0,1,191.37,2.9Z" transform="translate(-2.36 -1.27)"/><path class="cls-1" d="M198,10.1a2.9,2.9,0,0,1-1.1-.2,2.69,2.69,0,0,1-.92-.59,3,3,0,0,1-.63-1,3.3,3.3,0,0,1-.23-1.29,3.37,3.37,0,0,1,.23-1.31,3,3,0,0,1,.63-1,2.45,2.45,0,0,1,.92-.6A2.91,2.91,0,0,1,198,4a2.86,2.86,0,0,1,1.09.21,2.45,2.45,0,0,1,.92.6,2.67,2.67,0,0,1,.63,1,3.36,3.36,0,0,1,.24,1.31,3.3,3.3,0,0,1-.24,1.29,2.69,2.69,0,0,1-1.55,1.55A2.85,2.85,0,0,1,198,10.1Zm0-.81a1.88,1.88,0,0,0,.76-.16,1.75,1.75,0,0,0,.59-.46,2,2,0,0,0,.37-.7,3.06,3.06,0,0,0,0-1.83,2,2,0,0,0-.37-.72,1.75,1.75,0,0,0-.59-.46A1.73,1.73,0,0,0,198,4.8a1.77,1.77,0,0,0-.77.16,1.71,1.71,0,0,0-.58.46,2.06,2.06,0,0,0-.38.72,2.92,2.92,0,0,0-.13.92,2.9,2.9,0,0,0,.13.91,2.06,2.06,0,0,0,.38.7,1.71,1.71,0,0,0,.58.46A1.93,1.93,0,0,0,198,9.29Z" transform="translate(-2.36 -1.27)"/><path class="cls-1" d="M202.71,10V4.13h.82l.08,1h0a4.64,4.64,0,0,1,1-.81A2.28,2.28,0,0,1,205.86,4a1.87,1.87,0,0,1,1.53.6,2.74,2.74,0,0,1,.48,1.76V10h-1V6.47a2.06,2.06,0,0,0-.31-1.23,1.24,1.24,0,0,0-1-.4,1.86,1.86,0,0,0-.48.06,1.93,1.93,0,0,0-.44.2,3.88,3.88,0,0,0-.44.33,5.1,5.1,0,0,0-.48.46V10Z" transform="translate(-2.36 -1.27)"/><path class="cls-1" d="M212.52,10.1a4.59,4.59,0,0,1-1.6-.27,5.58,5.58,0,0,1-1.27-.64l.45-.65a4.51,4.51,0,0,0,1.11.58,4.38,4.38,0,0,0,1.43.22,1.89,1.89,0,0,0,1.11-.27.8.8,0,0,0,.36-.65.81.81,0,0,0-.06-.31.6.6,0,0,0-.26-.27,2.18,2.18,0,0,0-.55-.26,8.61,8.61,0,0,0-1-.24,4.67,4.67,0,0,1-1.71-.64A1.24,1.24,0,0,1,210,5.64a1.44,1.44,0,0,1,.15-.65,1.48,1.48,0,0,1,.47-.53,2.17,2.17,0,0,1,.75-.35A4.07,4.07,0,0,1,212.43,4a3.83,3.83,0,0,1,1.3.23,4.11,4.11,0,0,1,1.05.52l-.48.63a3.76,3.76,0,0,0-.9-.44,3.26,3.26,0,0,0-1.05-.17,1.72,1.72,0,0,0-1,.25.76.76,0,0,0-.3.59.63.63,0,0,0,.4.58,5.11,5.11,0,0,0,1.3.39,12.07,12.07,0,0,1,1.2.33,2.88,2.88,0,0,1,.73.39,1.28,1.28,0,0,1,.38.48,1.89,1.89,0,0,1,.1.6,1.46,1.46,0,0,1-.17.68,1.72,1.72,0,0,1-.5.55,2.77,2.77,0,0,1-.81.38A4.23,4.23,0,0,1,212.52,10.1Z" transform="translate(-2.36 -1.27)"/><path d="M218.64,12.52l-.28-.63a2.82,2.82,0,0,0,1.12-.81,2,2,0,0,0,.39-1.19l-.11,0h-.12a1,1,0,0,1-.66-.22.83.83,0,0,1-.27-.68.82.82,0,0,1,.29-.68,1,1,0,0,1,.67-.23.91.91,0,0,1,.81.41,2.05,2.05,0,0,1,.27,1.13,2.86,2.86,0,0,1-.56,1.78A3.45,3.45,0,0,1,218.64,12.52Z" transform="translate(-2.36 -1.27)"/><path class="cls-2" d="M234,10.1a2.9,2.9,0,0,1-1.1-.2,2.69,2.69,0,0,1-.92-.59,3,3,0,0,1-.63-1,3.3,3.3,0,0,1-.23-1.29,3.37,3.37,0,0,1,.23-1.31,3,3,0,0,1,.63-1,2.45,2.45,0,0,1,.92-.6A2.91,2.91,0,0,1,234,4a3,3,0,0,1,1.1.21,2.49,2.49,0,0,1,.91.6,2.67,2.67,0,0,1,.63,1,3.36,3.36,0,0,1,.24,1.31,3.3,3.3,0,0,1-.24,1.29,2.67,2.67,0,0,1-.63,1,2.75,2.75,0,0,1-.91.59A2.94,2.94,0,0,1,234,10.1Zm0-.81a1.88,1.88,0,0,0,.76-.16,1.75,1.75,0,0,0,.59-.46,2,2,0,0,0,.37-.7,3.06,3.06,0,0,0,0-1.83,2,2,0,0,0-.37-.72,1.75,1.75,0,0,0-.59-.46A1.73,1.73,0,0,0,234,4.8a1.77,1.77,0,0,0-.77.16,1.71,1.71,0,0,0-.58.46,2.06,2.06,0,0,0-.38.72,2.92,2.92,0,0,0-.13.92,2.9,2.9,0,0,0,.13.91,2.06,2.06,0,0,0,.38.7,1.71,1.71,0,0,0,.58.46A1.93,1.93,0,0,0,234,9.29Z" transform="translate(-2.36 -1.27)"/><path class="cls-2" d="M238.71,12.42V4.13h.82l.08.74h0a3.44,3.44,0,0,1,.94-.63A2.48,2.48,0,0,1,241.67,4a2.4,2.4,0,0,1,1,.21,2,2,0,0,1,.76.6,2.75,2.75,0,0,1,.46.94A4.58,4.58,0,0,1,244.08,7a3.67,3.67,0,0,1-.22,1.33,3.23,3.23,0,0,1-.58,1,2.52,2.52,0,0,1-.85.61,2.46,2.46,0,0,1-1,.21,2.34,2.34,0,0,1-.89-.19,3.18,3.18,0,0,1-.86-.56h0l0,1.1v2Zm2.55-3.14a1.58,1.58,0,0,0,1.29-.62,2.56,2.56,0,0,0,.51-1.7,4,4,0,0,0-.1-.88,1.86,1.86,0,0,0-.29-.67,1.35,1.35,0,0,0-.51-.44,1.6,1.6,0,0,0-.75-.16,1.92,1.92,0,0,0-.82.21,3.19,3.19,0,0,0-.89.67v2.9a2.61,2.61,0,0,0,.84.53A2.25,2.25,0,0,0,241.26,9.28Z" transform="translate(-2.36 -1.27)"/><path class="cls-2" d="M248.76,10.1a3.53,3.53,0,0,1-1.23-.2,3,3,0,0,1-1-.6,2.81,2.81,0,0,1-.67-1,3.14,3.14,0,0,1-.25-1.3,3.06,3.06,0,0,1,.25-1.27,2.74,2.74,0,0,1,.66-1,3,3,0,0,1,.95-.61,3.16,3.16,0,0,1,2.24,0,2.34,2.34,0,0,1,.84.56,2.42,2.42,0,0,1,.52.86,3.33,3.33,0,0,1,.18,1.12c0,.11,0,.22,0,.32s0,.2,0,.28h-4.6a2,2,0,0,0,.73,1.49,2.36,2.36,0,0,0,1.54.5,2.83,2.83,0,0,0,1-.15,3.66,3.66,0,0,0,.82-.4l.36.65a5.07,5.07,0,0,1-1,.49A3.55,3.55,0,0,1,248.76,10.1Zm-.15-5.34a2,2,0,0,0-.69.12,2,2,0,0,0-.59.35,1.72,1.72,0,0,0-.44.55,2.33,2.33,0,0,0-.26.77h3.72a1.94,1.94,0,0,0-.52-1.34A1.67,1.67,0,0,0,248.61,4.76Z" transform="translate(-2.36 -1.27)"/><path class="cls-2" d="M253.75,10V4.13h.82l.08,1.38h0a3.42,3.42,0,0,1,1.12-1.12A2.92,2.92,0,0,1,257.89,4a2.36,2.36,0,0,1,.55.18l-.23.86a3.25,3.25,0,0,0-.52-.16,2.68,2.68,0,0,0-.56,0,2.35,2.35,0,0,0-1.26.38,3.6,3.6,0,0,0-1.14,1.29V10Z" transform="translate(-2.36 -1.27)"/><path class="cls-2" d="M262.15,10.1a2.43,2.43,0,0,1-.77-.11,2.08,2.08,0,0,1-.63-.32,1.51,1.51,0,0,1-.42-.52,1.45,1.45,0,0,1-.16-.7,1.6,1.6,0,0,1,.23-.86,2,2,0,0,1,.75-.63,5,5,0,0,1,1.31-.43,18.33,18.33,0,0,1,1.93-.27,2.05,2.05,0,0,0-.09-.56,1.24,1.24,0,0,0-.27-.46,1.26,1.26,0,0,0-.47-.32,1.88,1.88,0,0,0-.71-.12,2.78,2.78,0,0,0-1.11.22,6.7,6.7,0,0,0-.93.48l-.39-.68.51-.29a6,6,0,0,1,.63-.27,4.77,4.77,0,0,1,.7-.2A3.82,3.82,0,0,1,263,4a2.27,2.27,0,0,1,1.79.66,2.56,2.56,0,0,1,.58,1.74V10h-.81l-.08-.79h0a6.1,6.1,0,0,1-1.08.66A2.92,2.92,0,0,1,262.15,10.1Zm.26-.79a2.3,2.3,0,0,0,1-.22,4.26,4.26,0,0,0,1-.64V6.91a12.36,12.36,0,0,0-1.56.21,4.19,4.19,0,0,0-1,.31,1.4,1.4,0,0,0-.53.42.9.9,0,0,0-.16.53.79.79,0,0,0,.11.42.86.86,0,0,0,.28.29,1.26,1.26,0,0,0,.41.17A2.52,2.52,0,0,0,262.41,9.31Z" transform="translate(-2.36 -1.27)"/><path class="cls-2" d="M271.13,10.1a2.79,2.79,0,0,1-1.07-.17,1.8,1.8,0,0,1-.7-.49,2.09,2.09,0,0,1-.38-.76,4.35,4.35,0,0,1-.11-1V4.93h-1.64V4.19l1.68-.06L269,2.26h.81V4.13h2.87v.8h-2.87V7.7a2.73,2.73,0,0,0,.08.69,1,1,0,0,0,.24.5,1,1,0,0,0,.45.31,2.09,2.09,0,0,0,.71.1,3.57,3.57,0,0,0,.76-.07,4.32,4.32,0,0,0,.64-.19l.22.72c-.26.09-.54.17-.83.24A4.37,4.37,0,0,1,271.13,10.1Z" transform="translate(-2.36 -1.27)"/><path class="cls-2" d="M277.39,10v-5h-2.71v-.8h3.69V10Zm.38-7.06a.79.79,0,0,1-.56-.21.72.72,0,0,1-.23-.55.72.72,0,0,1,.23-.56.87.87,0,0,1,1.13,0,.72.72,0,0,1,.23.56.72.72,0,0,1-.23.55A.8.8,0,0,1,277.77,2.9Z" transform="translate(-2.36 -1.27)"/><path class="cls-2" d="M284.4,10.1a2.9,2.9,0,0,1-1.1-.2,2.79,2.79,0,0,1-.92-.59,3,3,0,0,1-.63-1,3.49,3.49,0,0,1-.23-1.29,3.56,3.56,0,0,1,.23-1.31,3,3,0,0,1,.63-1,2.53,2.53,0,0,1,.92-.6A2.91,2.91,0,0,1,284.4,4a3,3,0,0,1,1.1.21,2.49,2.49,0,0,1,.91.6,2.67,2.67,0,0,1,.63,1,3.36,3.36,0,0,1,.24,1.31A3.3,3.3,0,0,1,287,8.35a2.67,2.67,0,0,1-.63,1,2.75,2.75,0,0,1-.91.59A2.94,2.94,0,0,1,284.4,10.1Zm0-.81a1.88,1.88,0,0,0,.76-.16,1.75,1.75,0,0,0,.59-.46,2.24,2.24,0,0,0,.38-.7,3.29,3.29,0,0,0,0-1.83,2.24,2.24,0,0,0-.38-.72,1.75,1.75,0,0,0-.59-.46,1.73,1.73,0,0,0-.76-.16,1.7,1.7,0,0,0-.76.16,1.66,1.66,0,0,0-.59.46,2.06,2.06,0,0,0-.38.72,2.92,2.92,0,0,0-.13.92,2.9,2.9,0,0,0,.13.91,2.06,2.06,0,0,0,.38.7,1.66,1.66,0,0,0,.59.46A1.84,1.84,0,0,0,284.4,9.29Z" transform="translate(-2.36 -1.27)"/><path class="cls-2" d="M289.11,10V4.13h.82l.08,1h.05a4.69,4.69,0,0,1,1-.81A2.22,2.22,0,0,1,292.26,4a1.87,1.87,0,0,1,1.53.6,2.74,2.74,0,0,1,.48,1.76V10h-1V6.47A2,2,0,0,0,293,5.24a1.22,1.22,0,0,0-1-.4,1.88,1.88,0,0,0-.49.06,2.14,2.14,0,0,0-.44.2,3.88,3.88,0,0,0-.44.33c-.15.13-.31.29-.48.46V10Z" transform="translate(-2.36 -1.27)"/><path class="cls-2" d="M298.92,10.1a4.59,4.59,0,0,1-1.6-.27,5.58,5.58,0,0,1-1.27-.64l.46-.65a4.18,4.18,0,0,0,1.11.58,4.28,4.28,0,0,0,1.42.22,1.89,1.89,0,0,0,1.11-.27.8.8,0,0,0,.36-.65.81.81,0,0,0-.06-.31.63.63,0,0,0-.25-.27,2.47,2.47,0,0,0-.56-.26,8.61,8.61,0,0,0-.95-.24A4.67,4.67,0,0,1,297,6.7a1.24,1.24,0,0,1-.57-1.06,1.33,1.33,0,0,1,.16-.65,1.36,1.36,0,0,1,.46-.53,2.17,2.17,0,0,1,.75-.35A4.07,4.07,0,0,1,298.83,4a3.83,3.83,0,0,1,1.3.23,4.19,4.19,0,0,1,1.06.52l-.48.63a4.17,4.17,0,0,0-.9-.44,3.32,3.32,0,0,0-1.06-.17,1.68,1.68,0,0,0-1,.25.76.76,0,0,0-.3.59.62.62,0,0,0,.39.58,5.25,5.25,0,0,0,1.3.39,10.71,10.71,0,0,1,1.2.33,3,3,0,0,1,.74.39,1.25,1.25,0,0,1,.37.48,1.64,1.64,0,0,1,.1.6,1.46,1.46,0,0,1-.17.68,1.8,1.8,0,0,1-.49.55A3,3,0,0,1,300,10,4.23,4.23,0,0,1,298.92,10.1Z" transform="translate(-2.36 -1.27)"/><path d="M305,12.52l-.28-.63a2.82,2.82,0,0,0,1.12-.81,1.91,1.91,0,0,0,.39-1.19l-.11,0h-.11a1,1,0,0,1-.66-.22.8.8,0,0,1-.28-.68.85.85,0,0,1,.29-.68,1,1,0,0,1,.67-.23.91.91,0,0,1,.81.41,2.05,2.05,0,0,1,.27,1.13,2.8,2.8,0,0,1-.56,1.78A3.45,3.45,0,0,1,305,12.52Z" transform="translate(-2.36 -1.27)"/><path d="M2.64,25.52l-.28-.63a2.82,2.82,0,0,0,1.12-.81,2,2,0,0,0,.4-1.19l-.12,0H3.65A1,1,0,0,1,3,22.69.8.8,0,0,1,2.71,22,.85.85,0,0,1,3,21.33a1.07,1.07,0,0,1,.67-.23.91.91,0,0,1,.81.41,2.05,2.05,0,0,1,.27,1.13,2.8,2.8,0,0,1-.56,1.78A3.45,3.45,0,0,1,2.64,25.52Zm1-6.71a.94.94,0,0,1-.69-.28,1,1,0,0,1-.28-.73,1,1,0,0,1,.28-.74.94.94,0,0,1,.69-.28.94.94,0,0,1,.69.28,1,1,0,0,1,.28.74,1,1,0,0,1-.28.73A.94.94,0,0,1,3.6,18.81Z" transform="translate(-2.36 -1.27)"/><path class="cls-3" d="M17.3,23v-5H15.64v-.74l1.66-.06v-.49a2.5,2.5,0,0,1,.57-1.72,2.28,2.28,0,0,1,1.79-.65,4.31,4.31,0,0,1,1.68.34l-.23.74a2.9,2.9,0,0,0-.67-.22,3.6,3.6,0,0,0-.69-.05,1.4,1.4,0,0,0-1.13.4,1.67,1.67,0,0,0-.34,1.12v.53h2.44v.8H18.28v5Z" transform="translate(-2.36 -1.27)"/><path class="cls-3" d="M25.39,23v-5H22.68v-.8h3.7V23Zm.38-7.06a.79.79,0,0,1-.56-.21.78.78,0,0,1,0-1.11.87.87,0,0,1,1.13,0,.78.78,0,0,1,0,1.11A.8.8,0,0,1,25.77,15.9Z" transform="translate(-2.36 -1.27)"/><path class="cls-3" d="M33.68,23.1a1.84,1.84,0,0,1-1.42-.52,2.25,2.25,0,0,1-.5-1.58V15.22H29.69v-.8h3.06v6.66a1.2,1.2,0,0,0,.31.93,1.25,1.25,0,0,0,.84.28A2.57,2.57,0,0,0,35,22l.25.74a6.47,6.47,0,0,1-.74.25A3.26,3.26,0,0,1,33.68,23.1Z" transform="translate(-2.36 -1.27)"/><path class="cls-3" d="M40.73,23.1a2.79,2.79,0,0,1-1.07-.17,1.8,1.8,0,0,1-.7-.49,2.09,2.09,0,0,1-.38-.76,4.35,4.35,0,0,1-.11-1V17.93H36.83v-.74l1.68-.06.13-1.87h.81v1.87h2.87v.8H39.45V20.7a2.73,2.73,0,0,0,.08.69,1,1,0,0,0,.24.5,1,1,0,0,0,.45.31,2.09,2.09,0,0,0,.71.1,3.57,3.57,0,0,0,.76-.07,4.32,4.32,0,0,0,.64-.19l.22.72c-.26.09-.54.17-.83.24A4.37,4.37,0,0,1,40.73,23.1Z" transform="translate(-2.36 -1.27)"/><path class="cls-3" d="M47.16,23.1a3.53,3.53,0,0,1-1.23-.2,3.07,3.07,0,0,1-1-.6,2.81,2.81,0,0,1-.67-1A3.31,3.31,0,0,1,44,20a3.23,3.23,0,0,1,.25-1.27,2.74,2.74,0,0,1,.66-1,3,3,0,0,1,.95-.61,3.16,3.16,0,0,1,2.24,0,2.34,2.34,0,0,1,.84.56,2.42,2.42,0,0,1,.52.86,3.33,3.33,0,0,1,.18,1.12c0,.11,0,.22,0,.32s0,.2,0,.28H45a2,2,0,0,0,.73,1.49,2.36,2.36,0,0,0,1.54.5,2.83,2.83,0,0,0,.95-.15,3.66,3.66,0,0,0,.82-.4l.36.65a4.57,4.57,0,0,1-1,.49A3.55,3.55,0,0,1,47.16,23.1ZM47,17.76a2,2,0,0,0-.69.12,2,2,0,0,0-.59.35,1.72,1.72,0,0,0-.44.55,2.59,2.59,0,0,0-.26.77h3.72a1.94,1.94,0,0,0-.52-1.34A1.67,1.67,0,0,0,47,17.76Z" transform="translate(-2.36 -1.27)"/><path class="cls-3" d="M52.15,23V17.13H53l.08,1.38h0a3.42,3.42,0,0,1,1.12-1.12A2.92,2.92,0,0,1,56.29,17a2.36,2.36,0,0,1,.55.18l-.23.86a3.25,3.25,0,0,0-.52-.16,2.68,2.68,0,0,0-.56-.05,2.35,2.35,0,0,0-1.26.38,3.6,3.6,0,0,0-1.14,1.29V23Z" transform="translate(-2.36 -1.27)"/><path class="cls-3" d="M61.32,23.1a4.59,4.59,0,0,1-1.6-.27,5.58,5.58,0,0,1-1.27-.64l.46-.65a4.18,4.18,0,0,0,1.11.58,4.28,4.28,0,0,0,1.42.22,1.89,1.89,0,0,0,1.11-.27.8.8,0,0,0,.36-.65.81.81,0,0,0-.06-.31.63.63,0,0,0-.25-.27,2.47,2.47,0,0,0-.56-.26,8.61,8.61,0,0,0-.95-.24,4.67,4.67,0,0,1-1.71-.64,1.24,1.24,0,0,1-.57-1.06A1.33,1.33,0,0,1,59,18a1.36,1.36,0,0,1,.46-.53,2.17,2.17,0,0,1,.75-.35,4.07,4.07,0,0,1,1-.13,3.83,3.83,0,0,1,1.3.23,4.19,4.19,0,0,1,1.06.52l-.48.63a4.17,4.17,0,0,0-.9-.44,3.32,3.32,0,0,0-1.06-.17,1.68,1.68,0,0,0-1,.25.76.76,0,0,0-.3.59.62.62,0,0,0,.39.58,5.25,5.25,0,0,0,1.3.39,10.71,10.71,0,0,1,1.2.33,3,3,0,0,1,.74.39,1.25,1.25,0,0,1,.37.48,1.64,1.64,0,0,1,.1.6,1.46,1.46,0,0,1-.17.68,1.72,1.72,0,0,1-.5.55,2.77,2.77,0,0,1-.81.38A4.23,4.23,0,0,1,61.32,23.1Z" transform="translate(-2.36 -1.27)"/><path d="M75,23.1a2.43,2.43,0,0,1-.77-.11,2.08,2.08,0,0,1-.63-.32,1.51,1.51,0,0,1-.42-.52,1.45,1.45,0,0,1-.16-.7,1.6,1.6,0,0,1,.23-.86A2,2,0,0,1,74,20a4.9,4.9,0,0,1,1.31-.43,18.33,18.33,0,0,1,1.93-.27,2.52,2.52,0,0,0-.09-.56,1.24,1.24,0,0,0-.27-.46,1.35,1.35,0,0,0-.47-.32,1.9,1.9,0,0,0-.72-.12,2.77,2.77,0,0,0-1.1.22,7.48,7.48,0,0,0-.94.48l-.38-.68.51-.29c.2-.1.41-.19.62-.27a5.29,5.29,0,0,1,.71-.2,3.74,3.74,0,0,1,.75-.08,2.27,2.27,0,0,1,1.79.66,2.56,2.56,0,0,1,.58,1.74V23h-.81l-.08-.79h0a6.1,6.1,0,0,1-1.08.66A3,3,0,0,1,75,23.1Zm.26-.79a2.3,2.3,0,0,0,1-.22,4.26,4.26,0,0,0,1-.64V19.91a12.36,12.36,0,0,0-1.56.21,4.19,4.19,0,0,0-1,.31,1.4,1.4,0,0,0-.53.42.9.9,0,0,0-.16.53.79.79,0,0,0,.11.42.86.86,0,0,0,.28.29,1.18,1.18,0,0,0,.41.17A2.52,2.52,0,0,0,75.21,22.31Z" transform="translate(-2.36 -1.27)"/><path d="M80.31,23V17.13h.82l.08,1h.05a4.64,4.64,0,0,1,1-.81A2.28,2.28,0,0,1,83.46,17a1.87,1.87,0,0,1,1.53.6,2.74,2.74,0,0,1,.48,1.76V23h-1V19.47a2,2,0,0,0-.31-1.23,1.23,1.23,0,0,0-1-.4,1.86,1.86,0,0,0-.48.06,1.93,1.93,0,0,0-.44.2,3.88,3.88,0,0,0-.44.33c-.16.13-.31.29-.48.46V23Z" transform="translate(-2.36 -1.27)"/><path d="M89.65,23.1a2.48,2.48,0,0,1-1-.2,2.31,2.31,0,0,1-.8-.59,2.75,2.75,0,0,1-.51-1,4.23,4.23,0,0,1-.18-1.29,3.44,3.44,0,0,1,.22-1.28,3,3,0,0,1,.59-1,2.52,2.52,0,0,1,.84-.61,2.47,2.47,0,0,1,1-.22,2.2,2.2,0,0,1,.94.2,3.14,3.14,0,0,1,.8.56h0l0-1.08V14.42h1V23h-.82l-.08-.77h0a3.45,3.45,0,0,1-.85.64A2.18,2.18,0,0,1,89.65,23.1Zm.2-.82a2.24,2.24,0,0,0,1.65-.88V18.5a2.63,2.63,0,0,0-.78-.53,1.85,1.85,0,0,0-.76-.16,1.68,1.68,0,0,0-.71.16,1.71,1.71,0,0,0-.58.46,2.49,2.49,0,0,0-.39.7,2.63,2.63,0,0,0-.14.91,2.65,2.65,0,0,0,.45,1.65A1.5,1.5,0,0,0,89.85,22.28Z" transform="translate(-2.36 -1.27)"/><path class="cls-4" d="M101.49,23V17.13h.79l.09.77h0a2.11,2.11,0,0,1,.53-.66,1.2,1.2,0,0,1,.8-.26c.57,0,.94.34,1.11,1a2.61,2.61,0,0,1,.56-.74,1.17,1.17,0,0,1,.81-.27,1.13,1.13,0,0,1,1,.47,2.18,2.18,0,0,1,.34,1.33V23h-1v-4.1q0-1-.63-1a.63.63,0,0,0-.5.22,3.53,3.53,0,0,0-.43.68V23H104v-4.1a1.73,1.73,0,0,0-.14-.77.48.48,0,0,0-.46-.25.69.69,0,0,0-.53.22,2.28,2.28,0,0,0-.43.68V23Z" transform="translate(-2.36 -1.27)"/><path class="cls-4" d="M111.6,23.1a2.9,2.9,0,0,1-1.1-.2,2.69,2.69,0,0,1-.92-.59,3,3,0,0,1-.63-1,3.3,3.3,0,0,1-.23-1.29,3.37,3.37,0,0,1,.23-1.31,3,3,0,0,1,.63-1,2.45,2.45,0,0,1,.92-.6,2.91,2.91,0,0,1,1.1-.21,2.86,2.86,0,0,1,1.09.21,2.45,2.45,0,0,1,.92.6,2.67,2.67,0,0,1,.63,1,3.36,3.36,0,0,1,.24,1.31,3.3,3.3,0,0,1-.24,1.29,2.69,2.69,0,0,1-1.55,1.55A2.85,2.85,0,0,1,111.6,23.1Zm0-.81a1.88,1.88,0,0,0,.76-.16,1.75,1.75,0,0,0,.59-.46,2,2,0,0,0,.37-.7,3.06,3.06,0,0,0,0-1.83,2,2,0,0,0-.37-.72,1.75,1.75,0,0,0-.59-.46,1.73,1.73,0,0,0-.76-.16,1.77,1.77,0,0,0-.77.16,1.71,1.71,0,0,0-.58.46,2.06,2.06,0,0,0-.38.72,3.29,3.29,0,0,0,0,1.83,2.06,2.06,0,0,0,.38.7,1.71,1.71,0,0,0,.58.46A1.93,1.93,0,0,0,111.6,22.29Z" transform="translate(-2.36 -1.27)"/><path class="cls-4" d="M118.45,23.1a2.48,2.48,0,0,1-1-.2,2.31,2.31,0,0,1-.8-.59,2.75,2.75,0,0,1-.51-1,3.94,3.94,0,0,1-.18-1.29,3.44,3.44,0,0,1,.22-1.28,3.21,3.21,0,0,1,.58-1,2.66,2.66,0,0,1,.85-.61,2.47,2.47,0,0,1,1-.22,2.2,2.2,0,0,1,.94.2,3.14,3.14,0,0,1,.8.56h0l0-1.08V14.42h1V23h-.82l-.08-.77h0a3.45,3.45,0,0,1-.85.64A2.18,2.18,0,0,1,118.45,23.1Zm.2-.82a2.24,2.24,0,0,0,1.65-.88V18.5a2.63,2.63,0,0,0-.78-.53,1.89,1.89,0,0,0-.76-.16,1.65,1.65,0,0,0-.71.16,1.71,1.71,0,0,0-.58.46,2.26,2.26,0,0,0-.39.7,2.63,2.63,0,0,0-.14.91,2.65,2.65,0,0,0,.45,1.65A1.5,1.5,0,0,0,118.65,22.28Z" transform="translate(-2.36 -1.27)"/><path class="cls-4" d="M126.19,23v-5h-2.72v-.8h3.7V23Zm.38-7.06a.79.79,0,0,1-.56-.21.68.68,0,0,1-.23-.55.69.69,0,0,1,.23-.56.79.79,0,0,1,.56-.21.82.82,0,0,1,.57.21.72.72,0,0,1,.22.56.71.71,0,0,1-.22.55A.82.82,0,0,1,126.57,15.9Z" transform="translate(-2.36 -1.27)"/><path class="cls-4" d="M132.5,23v-5h-1.67v-.74l1.67-.06v-.49a2.5,2.5,0,0,1,.57-1.72,2.25,2.25,0,0,1,1.78-.65,4.24,4.24,0,0,1,1.68.34l-.23.74a3,3,0,0,0-.66-.22,3.73,3.73,0,0,0-.69-.05,1.42,1.42,0,0,0-1.14.4,1.72,1.72,0,0,0-.34,1.12v.53h2.45v.8h-2.45v5Z" transform="translate(-2.36 -1.27)"/><path class="cls-4" d="M140.59,23v-5h-2.72v-.8h3.7V23ZM141,15.9a.79.79,0,0,1-.56-.21.68.68,0,0,1-.23-.55.69.69,0,0,1,.23-.56.85.85,0,0,1,1.12,0,.69.69,0,0,1,.23.56.68.68,0,0,1-.23.55A.79.79,0,0,1,141,15.9Z" transform="translate(-2.36 -1.27)"/><path class="cls-4" d="M148,23.1a3.53,3.53,0,0,1-1.23-.2,2.92,2.92,0,0,1-1-.6,2.68,2.68,0,0,1-.67-1,3.14,3.14,0,0,1-.25-1.3,3.06,3.06,0,0,1,.25-1.27,2.74,2.74,0,0,1,.66-1,2.93,2.93,0,0,1,.94-.61,3.19,3.19,0,0,1,2.25,0,2.34,2.34,0,0,1,.84.56,2.42,2.42,0,0,1,.52.86,3.33,3.33,0,0,1,.18,1.12c0,.11,0,.22,0,.32a1.88,1.88,0,0,1,0,.28h-4.59a2,2,0,0,0,.72,1.49,2.37,2.37,0,0,0,1.54.5,2.89,2.89,0,0,0,1-.15,3.88,3.88,0,0,0,.82-.4l.36.65a5.07,5.07,0,0,1-1,.49A3.57,3.57,0,0,1,148,23.1Zm-.14-5.34a2,2,0,0,0-.69.12,1.85,1.85,0,0,0-.59.35,1.75,1.75,0,0,0-.45.55,2.58,2.58,0,0,0-.25.77h3.72a1.94,1.94,0,0,0-.52-1.34A1.69,1.69,0,0,0,147.81,17.76Z" transform="translate(-2.36 -1.27)"/><path class="cls-4" d="M153,23V17.13h.81l.09,1.38h0A3.63,3.63,0,0,1,155,17.39a2.83,2.83,0,0,1,1.49-.41,2.91,2.91,0,0,1,.6.06,2.52,2.52,0,0,1,.55.18l-.23.86a3.59,3.59,0,0,0-.52-.16,2.75,2.75,0,0,0-.56-.05,2.41,2.41,0,0,0-1.27.38,3.58,3.58,0,0,0-1.13,1.29V23Z" transform="translate(-2.36 -1.27)"/><path class="cls-4" d="M162.11,23.1a4.58,4.58,0,0,1-1.59-.27,5.58,5.58,0,0,1-1.27-.64l.45-.65a4.51,4.51,0,0,0,1.11.58,4.37,4.37,0,0,0,1.42.22,1.91,1.91,0,0,0,1.12-.27.8.8,0,0,0,.36-.65.81.81,0,0,0-.06-.31.66.66,0,0,0-.26-.27,2.37,2.37,0,0,0-.55-.26,8.61,8.61,0,0,0-1-.24,4.67,4.67,0,0,1-1.71-.64,1.24,1.24,0,0,1-.57-1.06,1.44,1.44,0,0,1,.15-.65,1.55,1.55,0,0,1,.46-.53,2.32,2.32,0,0,1,.76-.35A4.07,4.07,0,0,1,162,17a3.83,3.83,0,0,1,1.3.23,4.11,4.11,0,0,1,1,.52l-.48.63a3.76,3.76,0,0,0-.9-.44,3.26,3.26,0,0,0-1.05-.17,1.72,1.72,0,0,0-1,.25.76.76,0,0,0-.3.59.61.61,0,0,0,.4.58,5,5,0,0,0,1.3.39,11.09,11.09,0,0,1,1.19.33,2.8,2.8,0,0,1,.74.39,1.16,1.16,0,0,1,.37.48,1.64,1.64,0,0,1,.11.6,1.46,1.46,0,0,1-.17.68,1.72,1.72,0,0,1-.5.55,2.71,2.71,0,0,1-.82.38A4.13,4.13,0,0,1,162.11,23.1Z" transform="translate(-2.36 -1.27)"/><path d="M173.91,23V14.42h1v2.32l0,1.38h0a4.9,4.9,0,0,1,1-.81,2.21,2.21,0,0,1,1.2-.33,1.88,1.88,0,0,1,1.54.6,2.74,2.74,0,0,1,.48,1.76V23h-1V19.47a2.06,2.06,0,0,0-.31-1.23,1.24,1.24,0,0,0-1-.4,1.86,1.86,0,0,0-.48.06,1.93,1.93,0,0,0-.44.2,3.88,3.88,0,0,0-.44.33c-.16.13-.32.29-.49.46V23Z" transform="translate(-2.36 -1.27)"/><path d="M183.79,23v-5h-2.71v-.8h3.69V23Zm.38-7.06a.79.79,0,0,1-.56-.21.78.78,0,0,1,0-1.11.79.79,0,0,1,.56-.21.84.84,0,0,1,.57.21.72.72,0,0,1,.22.56.71.71,0,0,1-.22.55A.84.84,0,0,1,184.17,15.9Z" transform="translate(-2.36 -1.27)"/><path d="M190.75,25.65a3.9,3.9,0,0,1-2-.42,1.32,1.32,0,0,1-.7-1.2,1.15,1.15,0,0,1,.25-.69,2.43,2.43,0,0,1,.71-.61v-.05a1.19,1.19,0,0,1-.42-.36.93.93,0,0,1-.18-.6,1.11,1.11,0,0,1,.18-.57,1.72,1.72,0,0,1,.52-.52v-.05a1.89,1.89,0,0,1-.51-.6,1.85,1.85,0,0,1-.21-.91,2,2,0,0,1,.18-.86,2.06,2.06,0,0,1,.5-.66,2.29,2.29,0,0,1,.73-.42,2.54,2.54,0,0,1,.88-.15,2.31,2.31,0,0,1,.86.15H194v.8h-1.51a1.82,1.82,0,0,1,.35.52,1.51,1.51,0,0,1,.14.66,1.91,1.91,0,0,1-.17.84,1.89,1.89,0,0,1-.48.63,2.08,2.08,0,0,1-.72.39,2.58,2.58,0,0,1-.88.14,2.45,2.45,0,0,1-1-.21.8.8,0,0,0-.45.67.53.53,0,0,0,.32.51,2,2,0,0,0,.89.16h1.31a3.44,3.44,0,0,1,1.67.31,1.11,1.11,0,0,1,.55,1.06,1.5,1.5,0,0,1-.23.78,2.12,2.12,0,0,1-.65.65,3.69,3.69,0,0,1-1,.44A5.06,5.06,0,0,1,190.75,25.65Zm.07-.72a3.62,3.62,0,0,0,.91-.1,2.49,2.49,0,0,0,.7-.26,1.26,1.26,0,0,0,.44-.37.73.73,0,0,0,.15-.44.55.55,0,0,0-.33-.56,2.61,2.61,0,0,0-1-.14h-1.14l-.47,0a1.66,1.66,0,0,1-.41-.08,1.66,1.66,0,0,0-.59.47,1,1,0,0,0-.16.5.81.81,0,0,0,.49.73A3,3,0,0,0,190.82,24.93Zm-.13-4.48A1.3,1.3,0,0,0,192,19.07a1.26,1.26,0,0,0-.11-.55,1.28,1.28,0,0,0-.28-.43,1.23,1.23,0,0,0-.43-.28,1.31,1.31,0,0,0-.52-.11,1.27,1.27,0,0,0-.52.11,1.15,1.15,0,0,0-.43.28,1.3,1.3,0,0,0-.29.43,1.42,1.42,0,0,0-.11.55,1.32,1.32,0,0,0,1.35,1.38Z" transform="translate(-2.36 -1.27)"/><path d="M195.51,23V14.42h1v2.32l-.06,1.38h0a4.9,4.9,0,0,1,1-.81,2.22,2.22,0,0,1,1.21-.33,1.87,1.87,0,0,1,1.53.6,2.74,2.74,0,0,1,.48,1.76V23h-1V19.47a2.06,2.06,0,0,0-.31-1.23,1.24,1.24,0,0,0-1-.4,1.86,1.86,0,0,0-.48.06,1.93,1.93,0,0,0-.44.2,3.88,3.88,0,0,0-.44.33,5.1,5.1,0,0,0-.48.46V23Z" transform="translate(-2.36 -1.27)"/><path d="M206.48,23.1a1.87,1.87,0,0,1-1.43-.52,2.25,2.25,0,0,1-.49-1.58V15.22h-2.08v-.8h3.06v6.66a1.2,1.2,0,0,0,.32.93,1.21,1.21,0,0,0,.84.28,2.6,2.6,0,0,0,1.09-.27l.25.74a6.47,6.47,0,0,1-.74.25A3.26,3.26,0,0,1,206.48,23.1Z" transform="translate(-2.36 -1.27)"/><path d="M212.59,23v-5h-2.71v-.8h3.69V23ZM213,15.9a.79.79,0,0,1-.56-.21.78.78,0,0,1,0-1.11.79.79,0,0,1,.56-.21.82.82,0,0,1,.57.21.72.72,0,0,1,.22.56.71.71,0,0,1-.22.55A.82.82,0,0,1,213,15.9Z" transform="translate(-2.36 -1.27)"/><path d="M219.55,25.65a3.9,3.9,0,0,1-2-.42,1.32,1.32,0,0,1-.7-1.2,1.15,1.15,0,0,1,.25-.69,2.43,2.43,0,0,1,.71-.61v-.05a1.19,1.19,0,0,1-.42-.36.93.93,0,0,1-.18-.6,1.11,1.11,0,0,1,.18-.57,1.72,1.72,0,0,1,.52-.52v-.05a1.89,1.89,0,0,1-.51-.6,1.85,1.85,0,0,1-.21-.91,2,2,0,0,1,.18-.86,2.06,2.06,0,0,1,.5-.66,2.29,2.29,0,0,1,.73-.42,2.54,2.54,0,0,1,.88-.15,2.31,2.31,0,0,1,.86.15h2.41v.8h-1.51a1.82,1.82,0,0,1,.35.52,1.51,1.51,0,0,1,.14.66,1.91,1.91,0,0,1-.17.84,1.89,1.89,0,0,1-.48.63,2.08,2.08,0,0,1-.72.39,2.58,2.58,0,0,1-.88.14,2.45,2.45,0,0,1-1-.21.8.8,0,0,0-.45.67.53.53,0,0,0,.32.51,2,2,0,0,0,.89.16h1.31a3.44,3.44,0,0,1,1.67.31,1.11,1.11,0,0,1,.55,1.06,1.5,1.5,0,0,1-.23.78,2.12,2.12,0,0,1-.65.65,3.69,3.69,0,0,1-1,.44A5.06,5.06,0,0,1,219.55,25.65Zm.07-.72a3.62,3.62,0,0,0,.91-.1,2.49,2.49,0,0,0,.7-.26,1.26,1.26,0,0,0,.44-.37.73.73,0,0,0,.15-.44.55.55,0,0,0-.33-.56,2.61,2.61,0,0,0-1-.14h-1.14l-.47,0a1.66,1.66,0,0,1-.41-.08,1.66,1.66,0,0,0-.59.47,1,1,0,0,0-.16.5.81.81,0,0,0,.49.73A3,3,0,0,0,219.62,24.93Zm-.13-4.48a1.3,1.3,0,0,0,1.34-1.38,1.26,1.26,0,0,0-.11-.55,1.28,1.28,0,0,0-.28-.43,1.23,1.23,0,0,0-.43-.28,1.31,1.31,0,0,0-.52-.11,1.27,1.27,0,0,0-.52.11,1.15,1.15,0,0,0-.43.28,1.3,1.3,0,0,0-.29.43,1.42,1.42,0,0,0-.11.55,1.32,1.32,0,0,0,1.35,1.38Z" transform="translate(-2.36 -1.27)"/><path d="M224.31,23V14.42h1v2.32l-.06,1.38h0a4.9,4.9,0,0,1,1-.81,2.22,2.22,0,0,1,1.21-.33,1.87,1.87,0,0,1,1.53.6,2.74,2.74,0,0,1,.48,1.76V23h-1V19.47a2.06,2.06,0,0,0-.31-1.23,1.24,1.24,0,0,0-1-.4,1.86,1.86,0,0,0-.48.06,1.93,1.93,0,0,0-.44.2,3.88,3.88,0,0,0-.44.33,5.1,5.1,0,0,0-.48.46V23Z" transform="translate(-2.36 -1.27)"/><path d="M235.12,23.1a2.77,2.77,0,0,1-1.06-.17,1.8,1.8,0,0,1-.7-.49,1.94,1.94,0,0,1-.38-.76,4.35,4.35,0,0,1-.11-1V17.93h-1.65v-.74l1.68-.06.14-1.87h.81v1.87h2.87v.8h-2.87V20.7a2.73,2.73,0,0,0,.08.69,1.1,1.1,0,0,0,.23.5,1.07,1.07,0,0,0,.46.31,2.09,2.09,0,0,0,.71.1,3.57,3.57,0,0,0,.76-.07,4.71,4.71,0,0,0,.64-.19l.22.72c-.27.09-.54.17-.84.24A4.25,4.25,0,0,1,235.12,23.1Z" transform="translate(-2.36 -1.27)"/><path d="M241.56,23.1a3.53,3.53,0,0,1-1.23-.2,3,3,0,0,1-1-.6,2.81,2.81,0,0,1-.67-1,3.14,3.14,0,0,1-.25-1.3,3.06,3.06,0,0,1,.25-1.27,2.74,2.74,0,0,1,.66-1,3,3,0,0,1,1-.61,3,3,0,0,1,1.12-.21,3.06,3.06,0,0,1,1.12.2,2.34,2.34,0,0,1,.84.56,2.42,2.42,0,0,1,.52.86,3.33,3.33,0,0,1,.18,1.12c0,.11,0,.22,0,.32s0,.2,0,.28h-4.6a2,2,0,0,0,.73,1.49,2.34,2.34,0,0,0,1.54.5,2.83,2.83,0,0,0,.95-.15,3.66,3.66,0,0,0,.82-.4l.36.65a5.07,5.07,0,0,1-1,.49A3.55,3.55,0,0,1,241.56,23.1Zm-.15-5.34a2,2,0,0,0-.69.12,1.85,1.85,0,0,0-.59.35,1.75,1.75,0,0,0-.45.55,2.58,2.58,0,0,0-.25.77h3.72a1.94,1.94,0,0,0-.52-1.34A1.67,1.67,0,0,0,241.41,17.76Z" transform="translate(-2.36 -1.27)"/><path d="M248.05,23.1a2.51,2.51,0,0,1-1-.2,2.31,2.31,0,0,1-.8-.59,2.75,2.75,0,0,1-.51-1,4.23,4.23,0,0,1-.18-1.29,3.44,3.44,0,0,1,.22-1.28,3,3,0,0,1,.59-1,2.52,2.52,0,0,1,1.84-.83,2.16,2.16,0,0,1,.94.2,3.14,3.14,0,0,1,.8.56h0l0-1.08V14.42h1V23h-.82l-.08-.77h0a3.51,3.51,0,0,1-.86.64A2.15,2.15,0,0,1,248.05,23.1Zm.2-.82a2.24,2.24,0,0,0,1.65-.88V18.5a2.51,2.51,0,0,0-.78-.53,1.85,1.85,0,0,0-.76-.16,1.68,1.68,0,0,0-.71.16,1.71,1.71,0,0,0-.58.46,2.49,2.49,0,0,0-.39.7,2.9,2.9,0,0,0-.14.91,2.65,2.65,0,0,0,.45,1.65A1.5,1.5,0,0,0,248.25,22.28Z" transform="translate(-2.36 -1.27)"/><path d="M5.2,51.07a7.28,7.28,0,0,1-2-2.34,7.06,7.06,0,0,1,0-6.21,7.07,7.07,0,0,1,2-2.34l.54.5A6.67,6.67,0,0,0,4,42.9a6.8,6.8,0,0,0,0,5.45,6.67,6.67,0,0,0,1.79,2.22Z" transform="translate(-2.36 -1.27)"/><path d="M10.27,49,7.81,43.13h1l1.34,3.31c.12.3.24.59.34.87s.22.57.32.85h0l.31-.85q.15-.42.33-.87l1.34-3.31h.95L11.38,49Z" transform="translate(-2.36 -1.27)"/><path d="M18.36,49.1a3.53,3.53,0,0,1-1.23-.2,3.07,3.07,0,0,1-1-.6,3,3,0,0,1-.67-1,3.31,3.31,0,0,1-.24-1.3,3.23,3.23,0,0,1,.24-1.27,3,3,0,0,1,.66-1,3,3,0,0,1,.95-.61,3.16,3.16,0,0,1,2.24,0,2.18,2.18,0,0,1,.84.56,2.59,2.59,0,0,1,.53.86,3.33,3.33,0,0,1,.18,1.12c0,.11,0,.22,0,.32a2,2,0,0,1,0,.28h-4.6a2.08,2.08,0,0,0,.73,1.49,2.36,2.36,0,0,0,1.54.5,2.83,2.83,0,0,0,.95-.15,4,4,0,0,0,.83-.4l.36.65a5.07,5.07,0,0,1-1,.49A3.64,3.64,0,0,1,18.36,49.1Zm-.14-5.34a2,2,0,0,0-.69.12,1.89,1.89,0,0,0-.6.35,1.87,1.87,0,0,0-.44.55,2.32,2.32,0,0,0-.25.77H20a2,2,0,0,0-.53-1.34A1.65,1.65,0,0,0,18.22,43.76Z" transform="translate(-2.36 -1.27)"/><path d="M23.35,49V43.13h.82l.08,1.38h0a3.52,3.52,0,0,1,1.12-1.12A2.92,2.92,0,0,1,27.49,43a2.21,2.21,0,0,1,.55.18l-.23.86a3.25,3.25,0,0,0-.52-.16,2.64,2.64,0,0,0-.55-.05,2.38,2.38,0,0,0-1.27.38,3.49,3.49,0,0,0-1.13,1.29V49Z" transform="translate(-2.36 -1.27)"/><path d="M32.52,49.1a4.59,4.59,0,0,1-1.6-.27,5.58,5.58,0,0,1-1.27-.64l.46-.65a4.18,4.18,0,0,0,1.11.58,4.32,4.32,0,0,0,1.42.22,1.85,1.85,0,0,0,1.11-.27.8.8,0,0,0,.36-.65.66.66,0,0,0-.06-.31.63.63,0,0,0-.25-.27,2.27,2.27,0,0,0-.56-.26,8.61,8.61,0,0,0-1-.24,4.67,4.67,0,0,1-1.71-.64A1.24,1.24,0,0,1,30,44.64a1.33,1.33,0,0,1,.16-.65,1.45,1.45,0,0,1,.46-.53,2.23,2.23,0,0,1,.76-.35,3.93,3.93,0,0,1,1-.13,3.83,3.83,0,0,1,1.3.23,4.19,4.19,0,0,1,1.06.52l-.48.63a4.17,4.17,0,0,0-.9-.44,3.32,3.32,0,0,0-1.06-.17,1.68,1.68,0,0,0-1,.25.76.76,0,0,0-.3.59.62.62,0,0,0,.39.58,5.25,5.25,0,0,0,1.3.39,10.71,10.71,0,0,1,1.2.33,3,3,0,0,1,.74.39,1.25,1.25,0,0,1,.37.48,1.64,1.64,0,0,1,.1.6,1.46,1.46,0,0,1-.17.68,1.72,1.72,0,0,1-.5.55,2.77,2.77,0,0,1-.81.38A4.23,4.23,0,0,1,32.52,49.1Z" transform="translate(-2.36 -1.27)"/><path d="M39.79,49v-5H37.08v-.8h3.69V49Zm.38-7.06a.79.79,0,0,1-.56-.21.78.78,0,0,1,0-1.11.87.87,0,0,1,1.13,0,.78.78,0,0,1,0,1.11A.8.8,0,0,1,40.17,41.9Z" transform="translate(-2.36 -1.27)"/><path d="M46.8,49.1a2.9,2.9,0,0,1-1.1-.2,2.79,2.79,0,0,1-.92-.59,3,3,0,0,1-.63-1,3.49,3.49,0,0,1-.23-1.29,3.56,3.56,0,0,1,.23-1.31,3,3,0,0,1,.63-1,2.53,2.53,0,0,1,.92-.6A2.91,2.91,0,0,1,46.8,43a3,3,0,0,1,1.1.21,2.49,2.49,0,0,1,.91.6,2.67,2.67,0,0,1,.63,1,3.36,3.36,0,0,1,.24,1.31,3.3,3.3,0,0,1-.24,1.29,2.67,2.67,0,0,1-.63,1,2.75,2.75,0,0,1-.91.59A2.94,2.94,0,0,1,46.8,49.1Zm0-.81a1.88,1.88,0,0,0,.76-.16,1.75,1.75,0,0,0,.59-.46,2.24,2.24,0,0,0,.38-.7,3.29,3.29,0,0,0,0-1.83,2.24,2.24,0,0,0-.38-.72,1.75,1.75,0,0,0-.59-.46,1.73,1.73,0,0,0-.76-.16A1.7,1.7,0,0,0,46,44a1.66,1.66,0,0,0-.59.46,2.06,2.06,0,0,0-.38.72,3.29,3.29,0,0,0,0,1.83,2.06,2.06,0,0,0,.38.7,1.66,1.66,0,0,0,.59.46A1.84,1.84,0,0,0,46.8,48.29Z" transform="translate(-2.36 -1.27)"/><path d="M51.51,49V43.13h.82l.08,1h.05a4.69,4.69,0,0,1,1-.81A2.22,2.22,0,0,1,54.66,43a1.87,1.87,0,0,1,1.53.6,2.74,2.74,0,0,1,.48,1.76V49h-1V45.47a2,2,0,0,0-.31-1.23,1.22,1.22,0,0,0-1-.4,1.88,1.88,0,0,0-.49.06,2.14,2.14,0,0,0-.44.2,3.88,3.88,0,0,0-.44.33c-.15.13-.31.29-.48.46V49Z" transform="translate(-2.36 -1.27)"/><path d="M66,49v-.82h2.21V42.5H66.45v-.63a8.72,8.72,0,0,0,1.14-.23,3.9,3.9,0,0,0,.83-.34h.73v6.84h2V49Z" transform="translate(-2.36 -1.27)"/><path d="M74,51.07l-.54-.5a6.64,6.64,0,0,0,1.78-2.22,6.8,6.8,0,0,0,0-5.45,6.64,6.64,0,0,0-1.78-2.22l.54-.5a7,7,0,0,1,2,2.34,7,7,0,0,1,0,6.21A7.25,7.25,0,0,1,74,51.07Z" transform="translate(-2.36 -1.27)"/><path d="M5.2,64.07a7.28,7.28,0,0,1-2-2.34,7.06,7.06,0,0,1,0-6.21,7.07,7.07,0,0,1,2-2.34l.54.5A6.67,6.67,0,0,0,4,55.9a6.8,6.8,0,0,0,0,5.45,6.67,6.67,0,0,0,1.79,2.22Z" transform="translate(-2.36 -1.27)"/><path class="cls-1" d="M10.45,62.1a2.51,2.51,0,0,1-1-.2,2.28,2.28,0,0,1-.79-.59,2.61,2.61,0,0,1-.52-1,4.23,4.23,0,0,1-.18-1.29,3.44,3.44,0,0,1,.22-1.28,3.23,3.23,0,0,1,.59-1,2.56,2.56,0,0,1,.85-.61,2.46,2.46,0,0,1,1-.22,2.16,2.16,0,0,1,.94.2,3,3,0,0,1,.8.56h0l0-1.08V53.42h1V62h-.81l-.09-.77h0a3.51,3.51,0,0,1-.86.64A2.15,2.15,0,0,1,10.45,62.1Zm.21-.82a2.24,2.24,0,0,0,1.64-.88V57.5a2.48,2.48,0,0,0-.77-.53,1.93,1.93,0,0,0-.77-.16,1.71,1.71,0,0,0-.71.16,1.82,1.82,0,0,0-.58.46,2.49,2.49,0,0,0-.39.7,2.9,2.9,0,0,0-.14.91,2.65,2.65,0,0,0,.45,1.65A1.51,1.51,0,0,0,10.66,61.28Z" transform="translate(-2.36 -1.27)"/><path class="cls-1" d="M18.36,62.1a3.53,3.53,0,0,1-1.23-.2,3.07,3.07,0,0,1-1-.6,3,3,0,0,1-.67-1,3.31,3.31,0,0,1-.24-1.3,3.23,3.23,0,0,1,.24-1.27,3,3,0,0,1,.66-1,3,3,0,0,1,.95-.61,3.16,3.16,0,0,1,2.24,0,2.18,2.18,0,0,1,.84.56,2.59,2.59,0,0,1,.53.86,3.33,3.33,0,0,1,.18,1.12c0,.11,0,.22,0,.32a2,2,0,0,1,0,.28h-4.6a2.08,2.08,0,0,0,.73,1.49,2.36,2.36,0,0,0,1.54.5,2.83,2.83,0,0,0,.95-.15,4,4,0,0,0,.83-.4l.36.65a5.07,5.07,0,0,1-1,.49A3.64,3.64,0,0,1,18.36,62.1Zm-.14-5.34a2,2,0,0,0-.69.12,1.89,1.89,0,0,0-.6.35,1.87,1.87,0,0,0-.44.55,2.32,2.32,0,0,0-.25.77H20a2,2,0,0,0-.53-1.34A1.65,1.65,0,0,0,18.22,56.76Z" transform="translate(-2.36 -1.27)"/><path class="cls-1" d="M22.72,62V56.13h.81l.09,1h0a5,5,0,0,1,1-.81A2.22,2.22,0,0,1,25.86,56a1.87,1.87,0,0,1,1.53.6,2.74,2.74,0,0,1,.49,1.76V62h-1V58.47a2,2,0,0,0-.31-1.23,1.22,1.22,0,0,0-1-.4,1.88,1.88,0,0,0-.49.06,2.14,2.14,0,0,0-.44.2,3.88,3.88,0,0,0-.44.33c-.15.13-.31.29-.48.46V62Z" transform="translate(-2.36 -1.27)"/><path class="cls-1" d="M30.37,64.47a2.3,2.3,0,0,1-.77-.12l.21-.78.25.06.28,0a1.44,1.44,0,0,0,1-.35,2.37,2.37,0,0,0,.6-.9l.18-.43-2.72-5.84h1l1.43,3.23.36.82q.18.45.36.87h0c.1-.28.21-.57.32-.86s.21-.57.3-.83l1.27-3.23h.94l-2.57,6.31a5.39,5.39,0,0,1-.38.8,2.8,2.8,0,0,1-.52.65,2.2,2.2,0,0,1-.69.42A2.23,2.23,0,0,1,30.37,64.47Z" transform="translate(-2.36 -1.27)"/><path class="cls-2" d="M46.45,62.1a2.51,2.51,0,0,1-1-.2,2.31,2.31,0,0,1-.8-.59,2.75,2.75,0,0,1-.51-1,4.23,4.23,0,0,1-.18-1.29,3.44,3.44,0,0,1,.22-1.28,3,3,0,0,1,.59-1A2.52,2.52,0,0,1,46.57,56a2.16,2.16,0,0,1,.94.2,3.14,3.14,0,0,1,.8.56h0l-.05-1.08V53.42h1V62h-.81l-.09-.77h0a3.51,3.51,0,0,1-.86.64A2.15,2.15,0,0,1,46.45,62.1Zm.2-.82a2.24,2.24,0,0,0,1.65-.88V57.5a2.51,2.51,0,0,0-.78-.53,1.85,1.85,0,0,0-.76-.16,1.71,1.71,0,0,0-.71.16,1.82,1.82,0,0,0-.58.46,2.49,2.49,0,0,0-.39.7,2.9,2.9,0,0,0-.14.91,2.65,2.65,0,0,0,.45,1.65A1.5,1.5,0,0,0,46.65,61.28Z" transform="translate(-2.36 -1.27)"/><path class="cls-2" d="M54.36,62.1a3.53,3.53,0,0,1-1.23-.2,3.07,3.07,0,0,1-1-.6,2.81,2.81,0,0,1-.67-1,3.31,3.31,0,0,1-.25-1.3,3.23,3.23,0,0,1,.25-1.27,2.74,2.74,0,0,1,.66-1,3,3,0,0,1,1-.61,3.16,3.16,0,0,1,2.24,0,2.34,2.34,0,0,1,.84.56,2.42,2.42,0,0,1,.52.86,3.33,3.33,0,0,1,.18,1.12c0,.11,0,.22,0,.32s0,.2,0,.28h-4.6a2,2,0,0,0,.73,1.49,2.36,2.36,0,0,0,1.54.5,2.83,2.83,0,0,0,1-.15,3.66,3.66,0,0,0,.82-.4l.36.65a4.57,4.57,0,0,1-1,.49A3.55,3.55,0,0,1,54.36,62.1Zm-.15-5.34a2,2,0,0,0-.69.12,2,2,0,0,0-.59.35,1.72,1.72,0,0,0-.44.55,2.59,2.59,0,0,0-.26.77H56a1.94,1.94,0,0,0-.52-1.34A1.67,1.67,0,0,0,54.21,56.76Z" transform="translate(-2.36 -1.27)"/><path class="cls-2" d="M60.5,62v-5H58.83v-.74l1.67-.06v-.49a2.5,2.5,0,0,1,.57-1.72,2.27,2.27,0,0,1,1.78-.65,4.24,4.24,0,0,1,1.68.34l-.22.74a3.07,3.07,0,0,0-.67-.22,3.6,3.6,0,0,0-.69-.05,1.39,1.39,0,0,0-1.13.4,1.67,1.67,0,0,0-.35,1.12v.53h2.45v.8H61.47v5Z" transform="translate(-2.36 -1.27)"/><path class="cls-2" d="M67.75,62.1A2.43,2.43,0,0,1,67,62a2.08,2.08,0,0,1-.63-.32,1.51,1.51,0,0,1-.42-.52,1.45,1.45,0,0,1-.16-.7,1.6,1.6,0,0,1,.23-.86,2,2,0,0,1,.75-.63,5,5,0,0,1,1.31-.43A18.33,18.33,0,0,1,70,58.26a2.05,2.05,0,0,0-.09-.56,1.24,1.24,0,0,0-.27-.46,1.26,1.26,0,0,0-.47-.32,1.92,1.92,0,0,0-.71-.12,2.78,2.78,0,0,0-1.11.22,6.7,6.7,0,0,0-.93.48L66,56.82l.51-.29a5.19,5.19,0,0,1,.63-.27,4.77,4.77,0,0,1,.7-.2,3.82,3.82,0,0,1,.75-.08,2.27,2.27,0,0,1,1.79.66A2.56,2.56,0,0,1,71,58.38V62h-.81l-.08-.79h0a6.49,6.49,0,0,1-1.08.66A2.92,2.92,0,0,1,67.75,62.1Zm.26-.79a2.3,2.3,0,0,0,1-.22,4.26,4.26,0,0,0,1-.64V58.91a12.36,12.36,0,0,0-1.56.21,4.19,4.19,0,0,0-1,.31,1.4,1.4,0,0,0-.53.42.9.9,0,0,0-.16.53.71.71,0,0,0,.11.42.86.86,0,0,0,.28.29,1.26,1.26,0,0,0,.41.17A2.52,2.52,0,0,0,68,61.31Z" transform="translate(-2.36 -1.27)"/><path class="cls-2" d="M75,62.1a1.86,1.86,0,0,1-1.54-.59,2.7,2.7,0,0,1-.49-1.76V56.13h1v3.49a2.06,2.06,0,0,0,.3,1.23,1.23,1.23,0,0,0,1,.4,1.59,1.59,0,0,0,.91-.26,4,4,0,0,0,.9-.82v-4h1V62h-.81l-.08-1h0a4.42,4.42,0,0,1-1,.84A2.21,2.21,0,0,1,75,62.1Z" transform="translate(-2.36 -1.27)"/><path class="cls-2" d="M84.08,62.1a1.87,1.87,0,0,1-1.43-.52A2.25,2.25,0,0,1,82.16,60V54.22H80.09v-.8h3v6.66a1.2,1.2,0,0,0,.32.93,1.21,1.21,0,0,0,.84.28A2.57,2.57,0,0,0,85.39,61l.25.74a6.47,6.47,0,0,1-.74.25A3.26,3.26,0,0,1,84.08,62.1Z" transform="translate(-2.36 -1.27)"/><path class="cls-2" d="M91.12,62.1a2.77,2.77,0,0,1-1.06-.17,1.8,1.8,0,0,1-.7-.49,1.94,1.94,0,0,1-.38-.76,4.35,4.35,0,0,1-.11-1V56.93H87.22v-.74l1.68-.06L89,54.26h.81v1.87h2.87v.8H89.85V59.7a3.34,3.34,0,0,0,.07.69,1.23,1.23,0,0,0,.24.5,1.07,1.07,0,0,0,.46.31,2.09,2.09,0,0,0,.71.1,3.42,3.42,0,0,0,.75-.07,4.45,4.45,0,0,0,.65-.19l.22.72c-.27.09-.54.17-.84.24A4.25,4.25,0,0,1,91.12,62.1Z" transform="translate(-2.36 -1.27)"/><path d="M95.6,64.07l-.54-.5a6.64,6.64,0,0,0,1.78-2.22,6.8,6.8,0,0,0,0-5.45,6.64,6.64,0,0,0-1.78-2.22l.54-.5a7,7,0,0,1,2,2.34,7,7,0,0,1,0,6.21A7.25,7.25,0,0,1,95.6,64.07Z" transform="translate(-2.36 -1.27)"/><path d="M5.2,77.07a7.28,7.28,0,0,1-2-2.34,7.06,7.06,0,0,1,0-6.21,7.07,7.07,0,0,1,2-2.34l.54.5A6.67,6.67,0,0,0,4,68.9a6.8,6.8,0,0,0,0,5.45,6.67,6.67,0,0,0,1.79,2.22Z" transform="translate(-2.36 -1.27)"/><path class="cls-1" d="M10.15,75.1A2.43,2.43,0,0,1,9.38,75a2.08,2.08,0,0,1-.63-.32,1.51,1.51,0,0,1-.42-.52,1.45,1.45,0,0,1-.16-.7,1.52,1.52,0,0,1,.24-.86A1.88,1.88,0,0,1,9.15,72a5,5,0,0,1,1.31-.43,18.18,18.18,0,0,1,1.94-.27,2.05,2.05,0,0,0-.1-.56,1.23,1.23,0,0,0-.26-.46,1.3,1.3,0,0,0-.48-.32,1.85,1.85,0,0,0-.71-.12A2.82,2.82,0,0,0,9.74,70a6.7,6.7,0,0,0-.93.48l-.39-.68.51-.29a6,6,0,0,1,.63-.27,4.77,4.77,0,0,1,.7-.2A3.84,3.84,0,0,1,11,69a2.25,2.25,0,0,1,1.78.66,2.51,2.51,0,0,1,.58,1.74V75h-.8l-.09-.79h0a6.19,6.19,0,0,1-1.09.66A2.92,2.92,0,0,1,10.15,75.1Zm.27-.79a2.37,2.37,0,0,0,1-.22,4.72,4.72,0,0,0,1-.64V71.91a12.29,12.29,0,0,0-1.57.21,4.19,4.19,0,0,0-1,.31,1.4,1.4,0,0,0-.53.42.9.9,0,0,0-.16.53.79.79,0,0,0,.11.42,1,1,0,0,0,.28.29,1.26,1.26,0,0,0,.41.17A2.63,2.63,0,0,0,10.42,74.31Z" transform="translate(-2.36 -1.27)"/><path class="cls-1" d="M19.28,75.1a1.84,1.84,0,0,1-1.42-.52,2.25,2.25,0,0,1-.5-1.58V67.22H15.29v-.8h3.06v6.66a1.2,1.2,0,0,0,.31.93,1.25,1.25,0,0,0,.84.28A2.57,2.57,0,0,0,20.59,74l.25.74a6.47,6.47,0,0,1-.74.25A3.21,3.21,0,0,1,19.28,75.1Z" transform="translate(-2.36 -1.27)"/><path class="cls-1" d="M26.48,75.1a1.87,1.87,0,0,1-1.43-.52A2.3,2.3,0,0,1,24.56,73V67.22H22.49v-.8h3.06v6.66a1.2,1.2,0,0,0,.31.93,1.25,1.25,0,0,0,.84.28A2.57,2.57,0,0,0,27.79,74l.25.74a6.47,6.47,0,0,1-.74.25A3.21,3.21,0,0,1,26.48,75.1Z" transform="translate(-2.36 -1.27)"/><path class="cls-1" d="M32.4,75.1a2.9,2.9,0,0,1-1.1-.2,2.79,2.79,0,0,1-.92-.59,3,3,0,0,1-.63-1,3.49,3.49,0,0,1-.23-1.29,3.56,3.56,0,0,1,.23-1.31,3,3,0,0,1,.63-1,2.53,2.53,0,0,1,.92-.6A2.91,2.91,0,0,1,32.4,69a3,3,0,0,1,1.1.21,2.53,2.53,0,0,1,.92.6,3,3,0,0,1,.63,1,3.56,3.56,0,0,1,.23,1.31,3.49,3.49,0,0,1-.23,1.29,3,3,0,0,1-.63,1,2.79,2.79,0,0,1-.92.59A2.94,2.94,0,0,1,32.4,75.1Zm0-.81a1.88,1.88,0,0,0,.76-.16,1.66,1.66,0,0,0,.59-.46,2.24,2.24,0,0,0,.38-.7,3.29,3.29,0,0,0,0-1.83,2.24,2.24,0,0,0-.38-.72,1.66,1.66,0,0,0-.59-.46,1.73,1.73,0,0,0-.76-.16,1.7,1.7,0,0,0-.76.16,1.66,1.66,0,0,0-.59.46,2.24,2.24,0,0,0-.38.72,3.29,3.29,0,0,0,0,1.83,2.24,2.24,0,0,0,.38.7,1.66,1.66,0,0,0,.59.46A1.84,1.84,0,0,0,32.4,74.29Z" transform="translate(-2.36 -1.27)"/><path class="cls-1" d="M37.37,75,36.1,69.13h1l.69,3.38q.09.42.15.81c0,.25.08.52.12.8h.05q.06-.42.15-.81l.18-.8.72-3h1l.69,3c.07.28.13.55.2.81a6.29,6.29,0,0,1,.16.8h0c.05-.28.09-.55.13-.8s.08-.53.13-.81l.7-3.38h.91L41.85,75H40.58l-.67-2.78c-.1-.41-.19-1-.29-1.73h0c-.09.74-.19,1.32-.28,1.73L38.64,75Z" transform="translate(-2.36 -1.27)"/><path class="cls-2" d="M53.65,75.1a2.51,2.51,0,0,1-1-.2,2.31,2.31,0,0,1-.8-.59,2.75,2.75,0,0,1-.51-1,4.23,4.23,0,0,1-.18-1.29,3.44,3.44,0,0,1,.22-1.28,3,3,0,0,1,.59-1A2.52,2.52,0,0,1,53.77,69a2.16,2.16,0,0,1,.94.2,3.14,3.14,0,0,1,.8.56h0l0-1.08V66.42h1V75h-.81l-.09-.77h0a3.51,3.51,0,0,1-.86.64A2.15,2.15,0,0,1,53.65,75.1Zm.2-.82a2.24,2.24,0,0,0,1.65-.88V70.5a2.51,2.51,0,0,0-.78-.53,1.85,1.85,0,0,0-.76-.16,1.71,1.71,0,0,0-.71.16,1.82,1.82,0,0,0-.58.46,2.49,2.49,0,0,0-.39.7,2.9,2.9,0,0,0-.14.91,2.65,2.65,0,0,0,.45,1.65A1.5,1.5,0,0,0,53.85,74.28Z" transform="translate(-2.36 -1.27)"/><path class="cls-2" d="M61.56,75.1a3.53,3.53,0,0,1-1.23-.2,3.07,3.07,0,0,1-1-.6,2.81,2.81,0,0,1-.67-1,3.31,3.31,0,0,1-.25-1.3,3.23,3.23,0,0,1,.25-1.27,2.74,2.74,0,0,1,.66-1,3,3,0,0,1,1-.61,3.16,3.16,0,0,1,2.24,0,2.34,2.34,0,0,1,.84.56,2.42,2.42,0,0,1,.52.86,3.33,3.33,0,0,1,.18,1.12c0,.11,0,.22,0,.32s0,.2,0,.28h-4.6a2,2,0,0,0,.73,1.49,2.36,2.36,0,0,0,1.54.5,2.83,2.83,0,0,0,1-.15,3.66,3.66,0,0,0,.82-.4l.36.65a4.57,4.57,0,0,1-1,.49A3.55,3.55,0,0,1,61.56,75.1Zm-.15-5.34a2,2,0,0,0-.69.12,2,2,0,0,0-.59.35,1.72,1.72,0,0,0-.44.55,2.59,2.59,0,0,0-.26.77h3.72a1.94,1.94,0,0,0-.52-1.34A1.67,1.67,0,0,0,61.41,69.76Z" transform="translate(-2.36 -1.27)"/><path class="cls-2" d="M67.87,75l-2.46-5.83h1l1.34,3.31.34.87c.11.28.21.57.32.85h0l.3-.85q.15-.42.33-.87l1.35-3.31h1L69,75Z" transform="translate(-2.36 -1.27)"/><path class="cls-2" d="M75.79,75v-5H73.08v-.8h3.69V75Zm.38-7.06a.79.79,0,0,1-.56-.21.78.78,0,0,1,0-1.11.87.87,0,0,1,1.13,0,.78.78,0,0,1,0,1.11A.8.8,0,0,1,76.17,67.9Z" transform="translate(-2.36 -1.27)"/><path class="cls-2" d="M83.35,75.1a3.72,3.72,0,0,1-1.27-.2,3,3,0,0,1-1-.59,2.64,2.64,0,0,1-.67-1,3.3,3.3,0,0,1-.24-1.29,3.19,3.19,0,0,1,.25-1.31,2.86,2.86,0,0,1,.71-1,2.8,2.8,0,0,1,1-.6A3.79,3.79,0,0,1,83.41,69a2.8,2.8,0,0,1,1.24.26,3,3,0,0,1,.88.6l-.49.63a3.11,3.11,0,0,0-.75-.49,2,2,0,0,0-.85-.18,2.51,2.51,0,0,0-.92.16,1.94,1.94,0,0,0-.71.46,2.07,2.07,0,0,0-.46.72,2.25,2.25,0,0,0-.17.92,2.42,2.42,0,0,0,.16.91,2.08,2.08,0,0,0,.46.7,2,2,0,0,0,.7.46,2.73,2.73,0,0,0,.92.16,2.31,2.31,0,0,0,1-.21,3.74,3.74,0,0,0,.81-.52l.44.63a3.63,3.63,0,0,1-1.07.67A3.3,3.3,0,0,1,83.35,75.1Z" transform="translate(-2.36 -1.27)"/><path class="cls-2" d="M90.36,75.1a3.53,3.53,0,0,1-1.23-.2,3,3,0,0,1-1-.6,2.81,2.81,0,0,1-.67-1,3.14,3.14,0,0,1-.25-1.3,3.06,3.06,0,0,1,.25-1.27,2.74,2.74,0,0,1,.66-1,2.87,2.87,0,0,1,.95-.61A3,3,0,0,1,90.19,69a3.06,3.06,0,0,1,1.12.2,2.34,2.34,0,0,1,.84.56,2.42,2.42,0,0,1,.52.86,3.33,3.33,0,0,1,.18,1.12c0,.11,0,.22,0,.32a1.88,1.88,0,0,1,0,.28H88.21a2,2,0,0,0,.72,1.49,2.38,2.38,0,0,0,1.55.5,2.83,2.83,0,0,0,1-.15,3.88,3.88,0,0,0,.82-.4l.36.65a5.07,5.07,0,0,1-1,.49A3.55,3.55,0,0,1,90.36,75.1Zm-.15-5.34a2,2,0,0,0-.69.12,1.85,1.85,0,0,0-.59.35,1.75,1.75,0,0,0-.45.55,2.58,2.58,0,0,0-.25.77H92a1.94,1.94,0,0,0-.52-1.34A1.67,1.67,0,0,0,90.21,69.76Z" transform="translate(-2.36 -1.27)"/><path class="cls-2" d="M94.62,71.37v-.74h5.16v.74Z" transform="translate(-2.36 -1.27)"/><path class="cls-2" d="M101.49,75V69.13h.79l.09.77h0a2.11,2.11,0,0,1,.53-.66,1.2,1.2,0,0,1,.8-.26c.57,0,.94.34,1.11,1a2.61,2.61,0,0,1,.56-.74,1.17,1.17,0,0,1,.81-.27,1.13,1.13,0,0,1,1,.47,2.18,2.18,0,0,1,.34,1.33V75h-1v-4.1q0-1-.63-1a.63.63,0,0,0-.5.22,3.53,3.53,0,0,0-.43.68V75H104v-4.1a1.73,1.73,0,0,0-.14-.77.48.48,0,0,0-.46-.25.69.69,0,0,0-.53.22,2.28,2.28,0,0,0-.43.68V75Z" transform="translate(-2.36 -1.27)"/><path class="cls-2" d="M111.79,75v-5h-2.71v-.8h3.69V75Zm.38-7.06a.79.79,0,0,1-.56-.21.78.78,0,0,1,0-1.11.79.79,0,0,1,.56-.21.82.82,0,0,1,.57.21.72.72,0,0,1,.22.56.71.71,0,0,1-.22.55A.82.82,0,0,1,112.17,67.9Z" transform="translate(-2.36 -1.27)"/><path class="cls-2" d="M119.35,75.1a3.72,3.72,0,0,1-1.27-.2,3,3,0,0,1-1-.59,2.52,2.52,0,0,1-.67-1,3.3,3.3,0,0,1-.24-1.29,3.19,3.19,0,0,1,.25-1.31,2.86,2.86,0,0,1,.71-1,2.8,2.8,0,0,1,1-.6,3.79,3.79,0,0,1,1.26-.21,2.8,2.8,0,0,1,1.24.26,3,3,0,0,1,.88.6l-.49.63a3.11,3.11,0,0,0-.75-.49,2,2,0,0,0-.85-.18,2.51,2.51,0,0,0-.92.16,2.07,2.07,0,0,0-.72.46,2.4,2.4,0,0,0-.46.72,2.7,2.7,0,0,0,0,1.83,2.21,2.21,0,0,0,.45.7,2,2,0,0,0,.71.46,2.69,2.69,0,0,0,.92.16,2.31,2.31,0,0,0,1-.21,3.74,3.74,0,0,0,.81-.52l.44.63a3.68,3.68,0,0,1-1.08.67A3.21,3.21,0,0,1,119.35,75.1Z" transform="translate(-2.36 -1.27)"/><path class="cls-2" d="M124.15,75V69.13H125l.09,1.38h0a3.55,3.55,0,0,1,1.13-1.12,2.77,2.77,0,0,1,1.48-.41,2.91,2.91,0,0,1,.6.06,2.52,2.52,0,0,1,.55.18l-.23.86a3.59,3.59,0,0,0-.52-.16,2.75,2.75,0,0,0-.56,0,2.41,2.41,0,0,0-1.27.38,3.58,3.58,0,0,0-1.13,1.29V75Z" transform="translate(-2.36 -1.27)"/><path class="cls-2" d="M133.19,75.1a2.85,2.85,0,0,1-1.09-.2,2.69,2.69,0,0,1-1.55-1.55,3.3,3.3,0,0,1-.24-1.29,3.36,3.36,0,0,1,.24-1.31,2.67,2.67,0,0,1,.63-1,2.45,2.45,0,0,1,.92-.6,2.86,2.86,0,0,1,1.09-.21,2.91,2.91,0,0,1,1.1.21,2.45,2.45,0,0,1,.92.6,3,3,0,0,1,.63,1,3.37,3.37,0,0,1,.23,1.31,3.3,3.3,0,0,1-.23,1.29,3,3,0,0,1-.63,1,2.69,2.69,0,0,1-.92.59A2.9,2.9,0,0,1,133.19,75.1Zm0-.81a1.93,1.93,0,0,0,.77-.16,1.85,1.85,0,0,0,.59-.46,2.23,2.23,0,0,0,.37-.7,3.29,3.29,0,0,0,0-1.83,2.23,2.23,0,0,0-.37-.72A1.85,1.85,0,0,0,134,70a1.77,1.77,0,0,0-.77-.16,1.73,1.73,0,0,0-.76.16,1.62,1.62,0,0,0-.58.46,1.91,1.91,0,0,0-.38.72,3.29,3.29,0,0,0,0,1.83,1.9,1.9,0,0,0,.38.7,1.62,1.62,0,0,0,.58.46A1.88,1.88,0,0,0,133.19,74.29Z" transform="translate(-2.36 -1.27)"/><path class="cls-2" d="M137.91,77.42V69.13h.82l.08.74h0a3.44,3.44,0,0,1,.94-.63,2.49,2.49,0,0,1,2.11,0,2.11,2.11,0,0,1,.76.6,2.94,2.94,0,0,1,.46.94,4.6,4.6,0,0,1,.15,1.23,3.91,3.91,0,0,1-.21,1.33,3.44,3.44,0,0,1-.58,1,2.51,2.51,0,0,1-1.86.82,2.33,2.33,0,0,1-.88-.19,3,3,0,0,1-.86-.56h0l0,1.1v2Zm2.54-3.14a1.61,1.61,0,0,0,1.3-.62,2.55,2.55,0,0,0,.5-1.7,4,4,0,0,0-.09-.88,1.87,1.87,0,0,0-.3-.67,1.28,1.28,0,0,0-.51-.44,1.53,1.53,0,0,0-.74-.16,1.88,1.88,0,0,0-.82.21,3.38,3.38,0,0,0-.9.67v2.9a2.61,2.61,0,0,0,.84.53A2.25,2.25,0,0,0,140.45,74.28Z" transform="translate(-2.36 -1.27)"/><path class="cls-2" d="M145.11,75V66.42h1v2.32L146,70.12h0a4.64,4.64,0,0,1,1-.81,2.21,2.21,0,0,1,1.2-.33,1.84,1.84,0,0,1,1.53.6,2.68,2.68,0,0,1,.49,1.76V75h-1V71.47a2,2,0,0,0-.32-1.23,1.21,1.21,0,0,0-1-.4,1.8,1.8,0,0,0-.48.06,1.93,1.93,0,0,0-.44.2,3.94,3.94,0,0,0-.45.33c-.15.13-.31.29-.48.46V75Z" transform="translate(-2.36 -1.27)"/><path class="cls-2" d="M154.79,75.1a2.85,2.85,0,0,1-1.09-.2,2.69,2.69,0,0,1-1.55-1.55,3.3,3.3,0,0,1-.24-1.29,3.36,3.36,0,0,1,.24-1.31,2.67,2.67,0,0,1,.63-1,2.45,2.45,0,0,1,.92-.6,2.86,2.86,0,0,1,1.09-.21,2.91,2.91,0,0,1,1.1.21,2.45,2.45,0,0,1,.92.6,3,3,0,0,1,.63,1,3.36,3.36,0,0,1,.24,1.31,3.3,3.3,0,0,1-.24,1.29,3,3,0,0,1-.63,1,2.69,2.69,0,0,1-.92.59A2.9,2.9,0,0,1,154.79,75.1Zm0-.81a1.93,1.93,0,0,0,.77-.16,1.71,1.71,0,0,0,.58-.46,2.06,2.06,0,0,0,.38-.7,3.29,3.29,0,0,0,0-1.83,2.06,2.06,0,0,0-.38-.72,1.71,1.71,0,0,0-.58-.46,1.77,1.77,0,0,0-.77-.16A1.73,1.73,0,0,0,154,70a1.75,1.75,0,0,0-.59.46,2,2,0,0,0-.37.72,3.06,3.06,0,0,0,0,1.83,2,2,0,0,0,.37.7,1.75,1.75,0,0,0,.59.46A1.88,1.88,0,0,0,154.79,74.29Z" transform="translate(-2.36 -1.27)"/><path class="cls-2" d="M159.51,75V69.13h.82l.08,1h.05a4.64,4.64,0,0,1,1-.81,2.27,2.27,0,0,1,1.21-.33,1.84,1.84,0,0,1,1.53.6,2.68,2.68,0,0,1,.49,1.76V75h-1V71.47a2.06,2.06,0,0,0-.31-1.23,1.24,1.24,0,0,0-1-.4,1.86,1.86,0,0,0-.48.06,1.93,1.93,0,0,0-.44.2,3.94,3.94,0,0,0-.45.33c-.15.13-.31.29-.48.46V75Z" transform="translate(-2.36 -1.27)"/><path class="cls-2" d="M169.55,75.1a3.47,3.47,0,0,1-1.22-.2,2.87,2.87,0,0,1-1-.6,2.81,2.81,0,0,1-.67-1,3.14,3.14,0,0,1-.25-1.3,3.06,3.06,0,0,1,.25-1.27,2.74,2.74,0,0,1,.66-1,2.93,2.93,0,0,1,.94-.61,3.1,3.1,0,0,1,1.13-.21,3.06,3.06,0,0,1,1.12.2,2.34,2.34,0,0,1,.84.56,2.42,2.42,0,0,1,.52.86,3.33,3.33,0,0,1,.18,1.12c0,.11,0,.22,0,.32a1.88,1.88,0,0,1,0,.28h-4.59a2,2,0,0,0,.72,1.49,2.38,2.38,0,0,0,1.55.5,2.83,2.83,0,0,0,.95-.15,3.88,3.88,0,0,0,.82-.4l.36.65a5.07,5.07,0,0,1-1,.49A3.57,3.57,0,0,1,169.55,75.1Zm-.14-5.34a2,2,0,0,0-.69.12,1.85,1.85,0,0,0-.59.35,1.75,1.75,0,0,0-.45.55,2.58,2.58,0,0,0-.25.77h3.72a1.94,1.94,0,0,0-.52-1.34A1.67,1.67,0,0,0,169.41,69.76Z" transform="translate(-2.36 -1.27)"/><path d="M174.8,77.07l-.54-.5A6.64,6.64,0,0,0,176,74.35a6.8,6.8,0,0,0,0-5.45,6.64,6.64,0,0,0-1.78-2.22l.54-.5a7,7,0,0,1,2,2.34,7,7,0,0,1,0,6.21A7.25,7.25,0,0,1,174.8,77.07Z" transform="translate(-2.36 -1.27)"/><path d="M5.2,90.07a7.28,7.28,0,0,1-2-2.34,7.06,7.06,0,0,1,0-6.21,7.07,7.07,0,0,1,2-2.34l.54.5A6.67,6.67,0,0,0,4,81.9a6.8,6.8,0,0,0,0,5.45,6.67,6.67,0,0,0,1.79,2.22Z" transform="translate(-2.36 -1.27)"/><path class="cls-1" d="M10.15,88.1A2.43,2.43,0,0,1,9.38,88a2.08,2.08,0,0,1-.63-.32,1.51,1.51,0,0,1-.42-.52,1.45,1.45,0,0,1-.16-.7,1.52,1.52,0,0,1,.24-.86A1.88,1.88,0,0,1,9.15,85a5,5,0,0,1,1.31-.43,18.18,18.18,0,0,1,1.94-.27,2.05,2.05,0,0,0-.1-.56,1.23,1.23,0,0,0-.26-.46,1.3,1.3,0,0,0-.48-.32,1.85,1.85,0,0,0-.71-.12A2.82,2.82,0,0,0,9.74,83a6.7,6.7,0,0,0-.93.48l-.39-.68.51-.29a6,6,0,0,1,.63-.27,4.77,4.77,0,0,1,.7-.2A3.84,3.84,0,0,1,11,82a2.25,2.25,0,0,1,1.78.66,2.51,2.51,0,0,1,.58,1.74V88h-.8l-.09-.79h0a6.19,6.19,0,0,1-1.09.66A2.92,2.92,0,0,1,10.15,88.1Zm.27-.79a2.37,2.37,0,0,0,1-.22,4.72,4.72,0,0,0,1-.64V84.91a12.29,12.29,0,0,0-1.57.21,4.19,4.19,0,0,0-1,.31,1.4,1.4,0,0,0-.53.42.9.9,0,0,0-.16.53.79.79,0,0,0,.11.42,1,1,0,0,0,.28.29,1.26,1.26,0,0,0,.41.17A2.63,2.63,0,0,0,10.42,87.31Z" transform="translate(-2.36 -1.27)"/><path class="cls-1" d="M19.28,88.1a1.84,1.84,0,0,1-1.42-.52,2.25,2.25,0,0,1-.5-1.58V80.22H15.29v-.8h3.06v6.66a1.2,1.2,0,0,0,.31.93,1.25,1.25,0,0,0,.84.28A2.57,2.57,0,0,0,20.59,87l.25.74a6.47,6.47,0,0,1-.74.25A3.21,3.21,0,0,1,19.28,88.1Z" transform="translate(-2.36 -1.27)"/><path class="cls-1" d="M26.48,88.1a1.87,1.87,0,0,1-1.43-.52A2.3,2.3,0,0,1,24.56,86V80.22H22.49v-.8h3.06v6.66a1.2,1.2,0,0,0,.31.93,1.25,1.25,0,0,0,.84.28A2.57,2.57,0,0,0,27.79,87l.25.74a6.47,6.47,0,0,1-.74.25A3.21,3.21,0,0,1,26.48,88.1Z" transform="translate(-2.36 -1.27)"/><path class="cls-1" d="M32.4,88.1a2.9,2.9,0,0,1-1.1-.2,2.79,2.79,0,0,1-.92-.59,3,3,0,0,1-.63-1,3.49,3.49,0,0,1-.23-1.29,3.56,3.56,0,0,1,.23-1.31,3,3,0,0,1,.63-1,2.53,2.53,0,0,1,.92-.6A2.91,2.91,0,0,1,32.4,82a3,3,0,0,1,1.1.21,2.53,2.53,0,0,1,.92.6,3,3,0,0,1,.63,1,3.56,3.56,0,0,1,.23,1.31,3.49,3.49,0,0,1-.23,1.29,3,3,0,0,1-.63,1,2.79,2.79,0,0,1-.92.59A2.94,2.94,0,0,1,32.4,88.1Zm0-.81a1.88,1.88,0,0,0,.76-.16,1.66,1.66,0,0,0,.59-.46,2.24,2.24,0,0,0,.38-.7,3.29,3.29,0,0,0,0-1.83,2.24,2.24,0,0,0-.38-.72,1.66,1.66,0,0,0-.59-.46,1.73,1.73,0,0,0-.76-.16,1.7,1.7,0,0,0-.76.16,1.66,1.66,0,0,0-.59.46,2.24,2.24,0,0,0-.38.72,3.29,3.29,0,0,0,0,1.83,2.24,2.24,0,0,0,.38.7,1.66,1.66,0,0,0,.59.46A1.84,1.84,0,0,0,32.4,87.29Z" transform="translate(-2.36 -1.27)"/><path class="cls-1" d="M37.37,88,36.1,82.13h1l.69,3.38q.09.42.15.81c0,.25.08.52.12.8h.05q.06-.42.15-.81l.18-.8.72-3h1l.69,3c.07.28.13.55.2.81a6.29,6.29,0,0,1,.16.8h0c.05-.28.09-.55.13-.8s.08-.53.13-.81l.7-3.38h.91L41.85,88H40.58l-.67-2.78c-.1-.41-.19-1-.29-1.73h0c-.09.74-.19,1.32-.28,1.73L38.64,88Z" transform="translate(-2.36 -1.27)"/><path class="cls-2" d="M53.3,88v-5H51.63v-.74l1.67-.06v-.49a2.5,2.5,0,0,1,.57-1.72,2.27,2.27,0,0,1,1.78-.65,4.24,4.24,0,0,1,1.68.34l-.22.74a3.07,3.07,0,0,0-.67-.22,3.6,3.6,0,0,0-.69,0,1.39,1.39,0,0,0-1.13.4,1.67,1.67,0,0,0-.35,1.12v.53h2.45v.8H54.27v5Z" transform="translate(-2.36 -1.27)"/><path class="cls-2" d="M61.39,88v-5H58.68v-.8h3.69V88Zm.38-7.06a.79.79,0,0,1-.56-.21.78.78,0,0,1,0-1.11.87.87,0,0,1,1.13,0,.78.78,0,0,1,0,1.11A.8.8,0,0,1,61.77,80.9Z" transform="translate(-2.36 -1.27)"/><path class="cls-2" d="M69.68,88.1a1.87,1.87,0,0,1-1.43-.52A2.3,2.3,0,0,1,67.76,86V80.22H65.69v-.8h3.06v6.66a1.2,1.2,0,0,0,.31.93,1.23,1.23,0,0,0,.84.28A2.57,2.57,0,0,0,71,87l.25.74a6.47,6.47,0,0,1-.74.25A3.26,3.26,0,0,1,69.68,88.1Z" transform="translate(-2.36 -1.27)"/><path class="cls-2" d="M76,88.1a3.53,3.53,0,0,1-1.23-.2,3,3,0,0,1-1-.6,2.81,2.81,0,0,1-.67-1,3.14,3.14,0,0,1-.25-1.3,3.06,3.06,0,0,1,.25-1.27,2.74,2.74,0,0,1,.66-1,3,3,0,0,1,1-.61,3.16,3.16,0,0,1,2.24,0,2.34,2.34,0,0,1,.84.56,2.42,2.42,0,0,1,.52.86,3.33,3.33,0,0,1,.18,1.12c0,.11,0,.22,0,.32s0,.2,0,.28h-4.6a2,2,0,0,0,.73,1.49,2.36,2.36,0,0,0,1.54.5,2.83,2.83,0,0,0,1-.15,3.88,3.88,0,0,0,.82-.4l.36.65a4.57,4.57,0,0,1-1,.49A3.55,3.55,0,0,1,76,88.1Zm-.15-5.34a2,2,0,0,0-.69.12,2,2,0,0,0-.59.35,1.72,1.72,0,0,0-.44.55,2.59,2.59,0,0,0-.26.77h3.72A1.94,1.94,0,0,0,77,83.21,1.67,1.67,0,0,0,75.81,82.76Z" transform="translate(-2.36 -1.27)"/><path class="cls-2" d="M80.22,84.37v-.74h5.16v.74Z" transform="translate(-2.36 -1.27)"/><path class="cls-2" d="M88.15,88V82.13H89l.09,1.38h0a3.55,3.55,0,0,1,1.13-1.12A2.77,2.77,0,0,1,91.69,82a2.91,2.91,0,0,1,.6.06,2.36,2.36,0,0,1,.55.18l-.23.86a3.59,3.59,0,0,0-.52-.16,2.75,2.75,0,0,0-.56,0,2.35,2.35,0,0,0-1.26.38,3.51,3.51,0,0,0-1.14,1.29V88Z" transform="translate(-2.36 -1.27)"/><path class="cls-2" d="M97.56,88.1a3.53,3.53,0,0,1-1.23-.2,3,3,0,0,1-1-.6,2.81,2.81,0,0,1-.67-1,3.14,3.14,0,0,1-.25-1.3,3.06,3.06,0,0,1,.25-1.27,2.74,2.74,0,0,1,.66-1,2.87,2.87,0,0,1,1-.61A3,3,0,0,1,97.39,82a3.06,3.06,0,0,1,1.12.2,2.34,2.34,0,0,1,.84.56,2.42,2.42,0,0,1,.52.86,3.33,3.33,0,0,1,.18,1.12c0,.11,0,.22,0,.32a1.88,1.88,0,0,1,0,.28H95.41a2,2,0,0,0,.72,1.49,2.38,2.38,0,0,0,1.55.5,2.83,2.83,0,0,0,.95-.15,3.88,3.88,0,0,0,.82-.4l.36.65a5.07,5.07,0,0,1-1,.49A3.55,3.55,0,0,1,97.56,88.1Zm-.15-5.34a2,2,0,0,0-.69.12,1.85,1.85,0,0,0-.59.35,1.75,1.75,0,0,0-.45.55,2.58,2.58,0,0,0-.25.77h3.72a1.94,1.94,0,0,0-.52-1.34A1.67,1.67,0,0,0,97.41,82.76Z" transform="translate(-2.36 -1.27)"/><path class="cls-2" d="M103.75,88.1A2.43,2.43,0,0,1,103,88a2.08,2.08,0,0,1-.63-.32,1.66,1.66,0,0,1-.43-.52,1.57,1.57,0,0,1-.15-.7,1.6,1.6,0,0,1,.23-.86,2,2,0,0,1,.75-.63,4.9,4.9,0,0,1,1.31-.43,18.33,18.33,0,0,1,1.93-.27,2.52,2.52,0,0,0-.09-.56,1.24,1.24,0,0,0-.27-.46,1.35,1.35,0,0,0-.47-.32,1.94,1.94,0,0,0-.72-.12,2.77,2.77,0,0,0-1.1.22,7.48,7.48,0,0,0-.94.48l-.38-.68a5.45,5.45,0,0,1,.51-.29,5.8,5.8,0,0,1,.62-.27,4.91,4.91,0,0,1,.71-.2,3.74,3.74,0,0,1,.75-.08,2.24,2.24,0,0,1,1.78.66,2.51,2.51,0,0,1,.59,1.74V88h-.81l-.08-.79h0a6.49,6.49,0,0,1-1.08.66A3,3,0,0,1,103.75,88.1Zm.26-.79a2.3,2.3,0,0,0,1-.22,4.26,4.26,0,0,0,1-.64V84.91a12.36,12.36,0,0,0-1.56.21,4.19,4.19,0,0,0-1,.31,1.54,1.54,0,0,0-.54.42,1,1,0,0,0-.15.53.71.71,0,0,0,.11.42.86.86,0,0,0,.28.29,1.18,1.18,0,0,0,.41.17A2.44,2.44,0,0,0,104,87.31Z" transform="translate(-2.36 -1.27)"/><path class="cls-2" d="M111.25,88.1a2.48,2.48,0,0,1-1-.2,2.31,2.31,0,0,1-.8-.59,2.75,2.75,0,0,1-.51-1,4.23,4.23,0,0,1-.18-1.29,3.44,3.44,0,0,1,.22-1.28,3,3,0,0,1,.59-1,2.52,2.52,0,0,1,.84-.61,2.47,2.47,0,0,1,1-.22,2.2,2.2,0,0,1,.94.2,3.14,3.14,0,0,1,.8.56h0l0-1.08V79.42h1V88h-.82l-.08-.77h0a3.45,3.45,0,0,1-.85.64A2.18,2.18,0,0,1,111.25,88.1Zm.2-.82a2.24,2.24,0,0,0,1.65-.88V83.5a2.63,2.63,0,0,0-.78-.53,1.85,1.85,0,0,0-.76-.16,1.68,1.68,0,0,0-.71.16,1.71,1.71,0,0,0-.58.46,2.49,2.49,0,0,0-.39.7,3.17,3.17,0,0,0,.31,2.56A1.5,1.5,0,0,0,111.45,87.28Z" transform="translate(-2.36 -1.27)"/><path class="cls-2" d="M116.22,84.37v-.74h5.16v.74Z" transform="translate(-2.36 -1.27)"/><path class="cls-2" d="M125.65,88.1a2.48,2.48,0,0,1-1-.2,2.22,2.22,0,0,1-.8-.59,2.75,2.75,0,0,1-.51-1,4.23,4.23,0,0,1-.18-1.29,3.44,3.44,0,0,1,.22-1.28,2.87,2.87,0,0,1,.59-1,2.52,2.52,0,0,1,.84-.61,2.47,2.47,0,0,1,1-.22,2.2,2.2,0,0,1,.94.2,3.33,3.33,0,0,1,.8.56h0l0-1.08V79.42h1V88h-.82l-.08-.77h0a3.33,3.33,0,0,1-.86.64A2.11,2.11,0,0,1,125.65,88.1Zm.2-.82a2.26,2.26,0,0,0,1.65-.88V83.5a2.63,2.63,0,0,0-.78-.53,1.85,1.85,0,0,0-.76-.16,1.68,1.68,0,0,0-.71.16,1.62,1.62,0,0,0-.58.46,2.49,2.49,0,0,0-.39.7,3.17,3.17,0,0,0,.31,2.56A1.5,1.5,0,0,0,125.85,87.28Z" transform="translate(-2.36 -1.27)"/><path class="cls-2" d="M132.55,88.1a2.39,2.39,0,0,1-.77-.11,2.08,2.08,0,0,1-.63-.32,1.66,1.66,0,0,1-.43-.52,1.57,1.57,0,0,1-.15-.7,1.52,1.52,0,0,1,.23-.86,1.92,1.92,0,0,1,.75-.63,4.9,4.9,0,0,1,1.31-.43,18,18,0,0,1,1.93-.27,2.05,2.05,0,0,0-.1-.56,1.1,1.1,0,0,0-.26-.46,1.35,1.35,0,0,0-.47-.32,1.94,1.94,0,0,0-.72-.12,2.77,2.77,0,0,0-1.1.22,6.85,6.85,0,0,0-.94.48l-.38-.68a5.45,5.45,0,0,1,.51-.29,5,5,0,0,1,.62-.27,5.15,5.15,0,0,1,.7-.2,3.84,3.84,0,0,1,.76-.08,2.25,2.25,0,0,1,1.78.66,2.51,2.51,0,0,1,.58,1.74V88H135l-.08-.79h0a6.19,6.19,0,0,1-1.09.66A2.88,2.88,0,0,1,132.55,88.1Zm.26-.79a2.3,2.3,0,0,0,1-.22,4.72,4.72,0,0,0,1-.64V84.91a12.55,12.55,0,0,0-1.57.21,4.1,4.1,0,0,0-1,.31,1.54,1.54,0,0,0-.54.42,1,1,0,0,0-.15.53.71.71,0,0,0,.11.42.86.86,0,0,0,.28.29,1.21,1.21,0,0,0,.4.17A2.63,2.63,0,0,0,132.81,87.31Z" transform="translate(-2.36 -1.27)"/><path class="cls-2" d="M141.52,88.1a2.83,2.83,0,0,1-1.07-.17,1.77,1.77,0,0,1-.69-.49,1.94,1.94,0,0,1-.38-.76,3.85,3.85,0,0,1-.11-1V82.93h-1.65v-.74l1.68-.06.13-1.87h.82v1.87h2.87v.8h-2.87V85.7a2.77,2.77,0,0,0,.07.69,1.23,1.23,0,0,0,.24.5,1,1,0,0,0,.46.31,2.09,2.09,0,0,0,.71.1,3.42,3.42,0,0,0,.75-.07,4.45,4.45,0,0,0,.65-.19l.22.72q-.4.13-.84.24A4.25,4.25,0,0,1,141.52,88.1Z" transform="translate(-2.36 -1.27)"/><path class="cls-2" d="M147,88.1a2.39,2.39,0,0,1-.77-.11,2.08,2.08,0,0,1-.63-.32,1.66,1.66,0,0,1-.43-.52,1.57,1.57,0,0,1-.15-.7,1.52,1.52,0,0,1,.23-.86,2,2,0,0,1,.74-.63,5,5,0,0,1,1.32-.43,18,18,0,0,1,1.93-.27,2.05,2.05,0,0,0-.1-.56,1.1,1.1,0,0,0-.26-.46,1.35,1.35,0,0,0-.47-.32,1.94,1.94,0,0,0-.72-.12,2.77,2.77,0,0,0-1.1.22,6.85,6.85,0,0,0-.94.48l-.38-.68a5.45,5.45,0,0,1,.51-.29,5,5,0,0,1,.62-.27,5.15,5.15,0,0,1,.7-.2,3.84,3.84,0,0,1,.76-.08,2.25,2.25,0,0,1,1.78.66,2.51,2.51,0,0,1,.58,1.74V88h-.8l-.08-.79h0a6.19,6.19,0,0,1-1.09.66A2.88,2.88,0,0,1,147,88.1Zm.26-.79a2.3,2.3,0,0,0,1-.22,4.72,4.72,0,0,0,1-.64V84.91a12.55,12.55,0,0,0-1.57.21,4.1,4.1,0,0,0-1,.31,1.45,1.45,0,0,0-.54.42,1,1,0,0,0-.15.53.79.79,0,0,0,.1.42,1,1,0,0,0,.29.29,1.21,1.21,0,0,0,.4.17A2.63,2.63,0,0,0,147.21,87.31Z" transform="translate(-2.36 -1.27)"/><path d="M34,103.07a7.37,7.37,0,0,1-2-2.34,7.06,7.06,0,0,1,0-6.21,7.16,7.16,0,0,1,2-2.34l.54.5a6.76,6.76,0,0,0-1.78,2.22,6.8,6.8,0,0,0,0,5.45,6.76,6.76,0,0,0,1.78,2.22Z" transform="translate(-2.36 -1.27)"/><path class="cls-3" d="M39.72,101.1a4.59,4.59,0,0,1-1.6-.27,5.58,5.58,0,0,1-1.27-.64l.46-.65a4.18,4.18,0,0,0,1.11.58,4.28,4.28,0,0,0,1.42.22,1.89,1.89,0,0,0,1.11-.27.8.8,0,0,0,.36-.65.81.81,0,0,0-.06-.31.63.63,0,0,0-.25-.27,2.47,2.47,0,0,0-.56-.26,8.61,8.61,0,0,0-.95-.24,4.67,4.67,0,0,1-1.71-.64,1.24,1.24,0,0,1-.57-1.06,1.33,1.33,0,0,1,.16-.65,1.36,1.36,0,0,1,.46-.53,2.17,2.17,0,0,1,.75-.35A4.15,4.15,0,0,1,39.64,95a3.81,3.81,0,0,1,1.29.23,4.19,4.19,0,0,1,1.06.52l-.48.63a4.17,4.17,0,0,0-.9-.44,3.32,3.32,0,0,0-1.06-.17,1.68,1.68,0,0,0-1,.25.76.76,0,0,0-.3.59.62.62,0,0,0,.39.58,5.25,5.25,0,0,0,1.3.39,10.71,10.71,0,0,1,1.2.33,3,3,0,0,1,.74.39,1.25,1.25,0,0,1,.37.48,1.64,1.64,0,0,1,.1.6,1.46,1.46,0,0,1-.17.68,1.72,1.72,0,0,1-.5.55,2.77,2.77,0,0,1-.81.38A4.23,4.23,0,0,1,39.72,101.1Z" transform="translate(-2.36 -1.27)"/><path class="cls-3" d="M46.15,101.1a1.86,1.86,0,0,1-1.54-.59,2.7,2.7,0,0,1-.49-1.76V95.13h1v3.49a2.06,2.06,0,0,0,.3,1.23,1.23,1.23,0,0,0,1,.4,1.59,1.59,0,0,0,.91-.26,3.83,3.83,0,0,0,.9-.82v-4h1V101h-.81l-.08-1h0a4.42,4.42,0,0,1-1,.84A2.21,2.21,0,0,1,46.15,101.1Z" transform="translate(-2.36 -1.27)"/><path class="cls-3" d="M54.24,101.1a2.34,2.34,0,0,1-.91-.21,3.37,3.37,0,0,1-.9-.58h0l-.08.65h-.8V92.42h1v2.32l0,1.13h0a3,3,0,0,1,.92-.65,2.42,2.42,0,0,1,1-.24,2.49,2.49,0,0,1,1,.21,2,2,0,0,1,.76.6,2.75,2.75,0,0,1,.46.94A4.19,4.19,0,0,1,56.88,98a3.71,3.71,0,0,1-.22,1.33,3.17,3.17,0,0,1-.58,1,2.51,2.51,0,0,1-1.84.82Zm-.16-.82a1.55,1.55,0,0,0,.71-.17,1.62,1.62,0,0,0,.56-.45,2.19,2.19,0,0,0,.38-.73,3.61,3.61,0,0,0,.13-1,3.49,3.49,0,0,0-.1-.88,1.86,1.86,0,0,0-.29-.67A1.28,1.28,0,0,0,55,96a1.6,1.6,0,0,0-.75-.16,1.92,1.92,0,0,0-.82.21,3.19,3.19,0,0,0-.89.67v2.9a2.61,2.61,0,0,0,.84.53A2.36,2.36,0,0,0,54.08,100.28Z" transform="translate(-2.36 -1.27)"/><path class="cls-3" d="M58.71,103.42V95.13h.82l.08.74h0a3.6,3.6,0,0,1,.94-.63A2.52,2.52,0,0,1,61.67,95a2.4,2.4,0,0,1,1,.21,2,2,0,0,1,.76.6,2.75,2.75,0,0,1,.46.94A4.22,4.22,0,0,1,64.08,98a3.67,3.67,0,0,1-.22,1.33,3.23,3.23,0,0,1-.58,1,2.42,2.42,0,0,1-.85.61,2.46,2.46,0,0,1-1,.21,2.34,2.34,0,0,1-.89-.19,3,3,0,0,1-.85-.56h0l.05,1.1v2Zm2.55-3.14a1.58,1.58,0,0,0,1.29-.62,2.56,2.56,0,0,0,.51-1.7,3.49,3.49,0,0,0-.1-.88,1.86,1.86,0,0,0-.29-.67,1.28,1.28,0,0,0-.51-.44,1.6,1.6,0,0,0-.75-.16,1.92,1.92,0,0,0-.82.21,3.19,3.19,0,0,0-.89.67v2.9a2.61,2.61,0,0,0,.84.53A2.25,2.25,0,0,0,61.26,100.28Z" transform="translate(-2.36 -1.27)"/><path class="cls-3" d="M67.75,101.1A2.43,2.43,0,0,1,67,101a2.08,2.08,0,0,1-.63-.32,1.51,1.51,0,0,1-.42-.52,1.45,1.45,0,0,1-.16-.7,1.6,1.6,0,0,1,.23-.86,2,2,0,0,1,.75-.63,5,5,0,0,1,1.31-.43A18.33,18.33,0,0,1,70,97.26a2.05,2.05,0,0,0-.09-.56,1.24,1.24,0,0,0-.27-.46,1.26,1.26,0,0,0-.47-.32,1.92,1.92,0,0,0-.71-.12,2.78,2.78,0,0,0-1.11.22,6.7,6.7,0,0,0-.93.48L66,95.82l.51-.29a5.19,5.19,0,0,1,.63-.27,4.77,4.77,0,0,1,.7-.2,3.82,3.82,0,0,1,.75-.08,2.27,2.27,0,0,1,1.79.66A2.56,2.56,0,0,1,71,97.38V101h-.81l-.08-.79h0a6.49,6.49,0,0,1-1.08.66A2.92,2.92,0,0,1,67.75,101.1Zm.26-.79a2.3,2.3,0,0,0,1-.22,4.26,4.26,0,0,0,1-.64V97.91a12.36,12.36,0,0,0-1.56.21,4.19,4.19,0,0,0-1,.31,1.4,1.4,0,0,0-.53.42.9.9,0,0,0-.16.53.71.71,0,0,0,.11.42.86.86,0,0,0,.28.29,1.26,1.26,0,0,0,.41.17A2.52,2.52,0,0,0,68,100.31Z" transform="translate(-2.36 -1.27)"/><path class="cls-3" d="M76.72,101.1a2.77,2.77,0,0,1-1.06-.17,1.8,1.8,0,0,1-.7-.49,2.09,2.09,0,0,1-.38-.76,4.35,4.35,0,0,1-.11-1V95.93H72.83v-.74l1.68-.06.13-1.87h.81v1.87h2.87v.8H75.45V98.7a3.34,3.34,0,0,0,.07.69,1.23,1.23,0,0,0,.24.5,1.07,1.07,0,0,0,.46.31,2.09,2.09,0,0,0,.71.1,3.42,3.42,0,0,0,.75-.07,4.11,4.11,0,0,0,.65-.19l.22.72c-.26.09-.54.17-.83.24A4.4,4.4,0,0,1,76.72,101.1Z" transform="translate(-2.36 -1.27)"/><path class="cls-3" d="M80.31,101V92.42h1v2.32l-.06,1.38h0a4.9,4.9,0,0,1,1-.81A2.22,2.22,0,0,1,83.46,95a1.87,1.87,0,0,1,1.53.6,2.74,2.74,0,0,1,.48,1.76V101h-1V97.47a2,2,0,0,0-.31-1.23,1.23,1.23,0,0,0-1-.4,1.86,1.86,0,0,0-.48.06,1.93,1.93,0,0,0-.44.2,3.88,3.88,0,0,0-.44.33c-.16.13-.31.29-.48.46V101Z" transform="translate(-2.36 -1.27)"/><path class="cls-3" d="M95.49,96.74l-.3-2.7,0-1.32h1.32l0,1.32-.3,2.7Zm2.75,0-.3-2.7,0-1.32h1.32l0,1.32-.3,2.7Z" transform="translate(-2.36 -1.27)"/><path class="cls-3" d="M102,102.88l3.94-10.44h.89l-3.94,10.44Z" transform="translate(-2.36 -1.27)"/><path class="cls-3" d="M111,101.1a1.85,1.85,0,0,1-1.54-.59,2.7,2.7,0,0,1-.49-1.76V95.13h1v3.49a2.06,2.06,0,0,0,.3,1.23,1.23,1.23,0,0,0,1,.4,1.59,1.59,0,0,0,.91-.26,4.27,4.27,0,0,0,.9-.82v-4h1V101h-.81l-.08-1h0a4.47,4.47,0,0,1-1,.84A2.18,2.18,0,0,1,111,101.1Z" transform="translate(-2.36 -1.27)"/><path class="cls-3" d="M118.92,101.1a4.59,4.59,0,0,1-1.6-.27,5.58,5.58,0,0,1-1.27-.64l.45-.65a4.51,4.51,0,0,0,1.11.58,4.38,4.38,0,0,0,1.43.22,1.89,1.89,0,0,0,1.11-.27.8.8,0,0,0,.36-.65.81.81,0,0,0-.06-.31.6.6,0,0,0-.26-.27,2.18,2.18,0,0,0-.55-.26,8.61,8.61,0,0,0-1-.24A4.67,4.67,0,0,1,117,97.7a1.24,1.24,0,0,1-.57-1.06,1.44,1.44,0,0,1,.15-.65,1.48,1.48,0,0,1,.47-.53,2.17,2.17,0,0,1,.75-.35,4.07,4.07,0,0,1,1-.13,3.83,3.83,0,0,1,1.3.23,4.11,4.11,0,0,1,1.05.52l-.48.63a3.76,3.76,0,0,0-.9-.44,3.3,3.3,0,0,0-1-.17,1.72,1.72,0,0,0-1,.25.76.76,0,0,0-.3.59.63.63,0,0,0,.4.58,5.11,5.11,0,0,0,1.3.39,12.07,12.07,0,0,1,1.2.33,2.88,2.88,0,0,1,.73.39,1.28,1.28,0,0,1,.38.48,1.89,1.89,0,0,1,.1.6,1.46,1.46,0,0,1-.17.68,1.72,1.72,0,0,1-.5.55,2.77,2.77,0,0,1-.81.38A4.23,4.23,0,0,1,118.92,101.1Z" transform="translate(-2.36 -1.27)"/><path class="cls-3" d="M124.15,101V95.13H125l.09,1.38h0a3.55,3.55,0,0,1,1.13-1.12,2.77,2.77,0,0,1,1.48-.41,2.91,2.91,0,0,1,.6.06,2.52,2.52,0,0,1,.55.18l-.23.86a3.59,3.59,0,0,0-.52-.16,2.75,2.75,0,0,0-.56,0,2.41,2.41,0,0,0-1.27.38,3.58,3.58,0,0,0-1.13,1.29V101Z" transform="translate(-2.36 -1.27)"/><path class="cls-3" d="M130.78,102.88l3.94-10.44h.89l-3.94,10.44Z" transform="translate(-2.36 -1.27)"/><path class="cls-3" d="M140.63,101.1a2.25,2.25,0,0,1-.9-.21,3.27,3.27,0,0,1-.91-.58h0l-.09.65h-.79V92.42h1v2.32l0,1.13h0a3.14,3.14,0,0,1,.92-.65,2.5,2.5,0,0,1,1-.24,2.44,2.44,0,0,1,1,.21,2.06,2.06,0,0,1,.77.6,2.94,2.94,0,0,1,.46.94,4.58,4.58,0,0,1,.15,1.22,4,4,0,0,1-.21,1.33,3.37,3.37,0,0,1-.58,1,2.52,2.52,0,0,1-.85.61A2.46,2.46,0,0,1,140.63,101.1Zm-.15-.82a1.58,1.58,0,0,0,.71-.17,1.71,1.71,0,0,0,.56-.45,2.18,2.18,0,0,0,.37-.73,3.25,3.25,0,0,0,.13-1,4,4,0,0,0-.09-.88,1.87,1.87,0,0,0-.3-.67,1.28,1.28,0,0,0-.51-.44,1.53,1.53,0,0,0-.74-.16,1.88,1.88,0,0,0-.82.21,3.38,3.38,0,0,0-.9.67v2.9a2.64,2.64,0,0,0,.85.53A2.3,2.3,0,0,0,140.48,100.28Z" transform="translate(-2.36 -1.27)"/><path class="cls-3" d="M147.79,101v-5h-2.72v-.8h3.7V101Zm.38-7.06a.79.79,0,0,1-.56-.21.68.68,0,0,1-.23-.55.69.69,0,0,1,.23-.56.85.85,0,0,1,1.12,0,.69.69,0,0,1,.23.56.68.68,0,0,1-.23.55A.79.79,0,0,1,148.17,93.9Z" transform="translate(-2.36 -1.27)"/><path class="cls-3" d="M152.31,101V95.13h.82l.08,1h0a4.64,4.64,0,0,1,1-.81,2.27,2.27,0,0,1,1.21-.33,1.84,1.84,0,0,1,1.53.6,2.68,2.68,0,0,1,.49,1.76V101h-1V97.47a2.06,2.06,0,0,0-.31-1.23,1.24,1.24,0,0,0-1-.4,1.8,1.8,0,0,0-.48.06,1.93,1.93,0,0,0-.44.2,3.94,3.94,0,0,0-.45.33c-.15.13-.31.29-.48.46V101Z" transform="translate(-2.36 -1.27)"/><path class="cls-3" d="M160.29,96.74,160,94l0-1.32h1.32l0,1.32-.3,2.7Zm2.75,0-.3-2.7,0-1.32H164L164,94l-.3,2.7Z" transform="translate(-2.36 -1.27)"/><path d="M167.6,103.07l-.54-.5a6.64,6.64,0,0,0,1.78-2.22,6.8,6.8,0,0,0,0-5.45,6.64,6.64,0,0,0-1.78-2.22l.54-.5a7,7,0,0,1,2,2.34,7,7,0,0,1,0,6.21A7.25,7.25,0,0,1,167.6,103.07Z" transform="translate(-2.36 -1.27)"/><path d="M34,116.07a7.37,7.37,0,0,1-2-2.34,7.06,7.06,0,0,1,0-6.21,7.16,7.16,0,0,1,2-2.34l.54.5a6.76,6.76,0,0,0-1.78,2.22,6.8,6.8,0,0,0,0,5.45,6.76,6.76,0,0,0,1.78,2.22Z" transform="translate(-2.36 -1.27)"/><path class="cls-3" d="M37.75,114v-5.83h.82l.08,1.38h0a3.42,3.42,0,0,1,1.12-1.12,2.92,2.92,0,0,1,2.08-.35,2.36,2.36,0,0,1,.55.18l-.23.86a3.25,3.25,0,0,0-.52-.16,2.64,2.64,0,0,0-.55,0,2.35,2.35,0,0,0-1.27.38,3.6,3.6,0,0,0-1.14,1.29V114Z" transform="translate(-2.36 -1.27)"/><path class="cls-3" d="M47.16,114.1a3.53,3.53,0,0,1-1.23-.2,3.07,3.07,0,0,1-1-.6,2.81,2.81,0,0,1-.67-1A3.31,3.31,0,0,1,44,111a3.23,3.23,0,0,1,.25-1.27,2.74,2.74,0,0,1,.66-1,3,3,0,0,1,.95-.61,3.16,3.16,0,0,1,2.24,0,2.34,2.34,0,0,1,.84.56,2.42,2.42,0,0,1,.52.86,3.33,3.33,0,0,1,.18,1.12c0,.11,0,.22,0,.32s0,.2,0,.28H45a2,2,0,0,0,.73,1.49,2.36,2.36,0,0,0,1.54.5,2.83,2.83,0,0,0,.95-.15,3.66,3.66,0,0,0,.82-.4l.36.65a4.57,4.57,0,0,1-1,.49A3.55,3.55,0,0,1,47.16,114.1ZM47,108.76a2,2,0,0,0-.69.12,2,2,0,0,0-.59.35,1.72,1.72,0,0,0-.44.55,2.59,2.59,0,0,0-.26.77h3.72a1.94,1.94,0,0,0-.52-1.34A1.67,1.67,0,0,0,47,108.76Z" transform="translate(-2.36 -1.27)"/><path class="cls-3" d="M54,116.65a3.9,3.9,0,0,1-2-.42,1.34,1.34,0,0,1-.7-1.2,1.15,1.15,0,0,1,.25-.69,2.43,2.43,0,0,1,.71-.61v0a1.19,1.19,0,0,1-.42-.36.93.93,0,0,1-.18-.6,1.11,1.11,0,0,1,.18-.57,1.72,1.72,0,0,1,.52-.52v0a1.89,1.89,0,0,1-.51-.6,1.85,1.85,0,0,1-.21-.91,2,2,0,0,1,.18-.86,2.06,2.06,0,0,1,.5-.66,2.29,2.29,0,0,1,.73-.42,2.54,2.54,0,0,1,.88-.15,2.31,2.31,0,0,1,.86.15h2.42v.8H55.65a1.64,1.64,0,0,1,.35.52,1.52,1.52,0,0,1,.15.66A1.92,1.92,0,0,1,56,111a1.66,1.66,0,0,1-.48.63,2.08,2.08,0,0,1-.72.39,2.54,2.54,0,0,1-.88.14,3,3,0,0,1-.49,0,2.81,2.81,0,0,1-.49-.16.79.79,0,0,0-.46.67.55.55,0,0,0,.32.51,2,2,0,0,0,.89.16H55a3.44,3.44,0,0,1,1.67.31,1.11,1.11,0,0,1,.55,1.06,1.5,1.5,0,0,1-.23.78,2.12,2.12,0,0,1-.65.65,3.69,3.69,0,0,1-1,.44A5,5,0,0,1,54,116.65Zm.07-.72a3.62,3.62,0,0,0,.91-.1,2.38,2.38,0,0,0,.7-.26,1.26,1.26,0,0,0,.44-.37.73.73,0,0,0,.15-.44.55.55,0,0,0-.33-.56,2.59,2.59,0,0,0-1-.14H53.75l-.48,0a1.75,1.75,0,0,1-.41-.08,1.53,1.53,0,0,0-.58.47.91.91,0,0,0-.17.5.82.82,0,0,0,.49.73A3,3,0,0,0,54,115.93Zm-.13-4.48a1.3,1.3,0,0,0,1-.37,1.33,1.33,0,0,0,.39-1,1.42,1.42,0,0,0-.1-.55,1.48,1.48,0,0,0-.29-.43,1.15,1.15,0,0,0-.43-.28,1.28,1.28,0,0,0-1,0,1.15,1.15,0,0,0-.43.28,1.48,1.48,0,0,0-.29.43,1.42,1.42,0,0,0-.1.55,1.3,1.3,0,0,0,1.34,1.38Z" transform="translate(-2.36 -1.27)"/><path class="cls-3" d="M61.56,114.1a3.53,3.53,0,0,1-1.23-.2,3.07,3.07,0,0,1-1-.6,2.81,2.81,0,0,1-.67-1,3.31,3.31,0,0,1-.25-1.3,3.23,3.23,0,0,1,.25-1.27,2.74,2.74,0,0,1,.66-1,3,3,0,0,1,1-.61,3.16,3.16,0,0,1,2.24,0,2.34,2.34,0,0,1,.84.56,2.42,2.42,0,0,1,.52.86,3.33,3.33,0,0,1,.18,1.12c0,.11,0,.22,0,.32s0,.2,0,.28h-4.6a2,2,0,0,0,.73,1.49,2.36,2.36,0,0,0,1.54.5,2.83,2.83,0,0,0,1-.15,3.66,3.66,0,0,0,.82-.4l.36.65a4.57,4.57,0,0,1-1,.49A3.55,3.55,0,0,1,61.56,114.1Zm-.15-5.34a2,2,0,0,0-.69.12,2,2,0,0,0-.59.35,1.72,1.72,0,0,0-.44.55,2.59,2.59,0,0,0-.26.77h3.72a1.94,1.94,0,0,0-.52-1.34A1.67,1.67,0,0,0,61.41,108.76Z" transform="translate(-2.36 -1.27)"/><path class="cls-3" d="M65.57,114l2.22-3-2.06-2.81h1.1l.92,1.28c.1.16.21.33.33.49s.23.34.35.5h0c.11-.16.23-.33.34-.51l.32-.5.88-1.26h1L69,111,71.22,114H70.14l-1-1.34-.38-.53c-.13-.19-.26-.36-.39-.53h0l-.36.52q-.18.26-.36.54l-1,1.34Z" transform="translate(-2.36 -1.27)"/><path class="cls-3" d="M81.42,109.76a1,1,0,0,1-.78-.38,1.65,1.65,0,0,1-.3-1.06,2.94,2.94,0,0,1,.45-1.61,3.27,3.27,0,0,1,1.27-1.14l.33.58a2.62,2.62,0,0,0-.88.8,2.21,2.21,0,0,0-.36,1.09.83.83,0,0,1,.32-.07.81.81,0,0,1,.6.24.85.85,0,0,1,.23.63.9.9,0,0,1-.25.67A.84.84,0,0,1,81.42,109.76Zm2.74,0a1,1,0,0,1-.77-.38,1.65,1.65,0,0,1-.3-1.06,2.94,2.94,0,0,1,.45-1.61,3.27,3.27,0,0,1,1.27-1.14l.33.58a2.62,2.62,0,0,0-.88.8A2.21,2.21,0,0,0,83.9,108a.83.83,0,0,1,.92.17.89.89,0,0,1,.23.63.9.9,0,0,1-.25.67A.86.86,0,0,1,84.16,109.76Z" transform="translate(-2.36 -1.27)"/><path class="cls-3" d="M87.73,110.55l1.83-4.63h.87l1.83,4.63H91.4l-.79-2.11-.59-1.6h0l-.59,1.6-.79,2.11Z" transform="translate(-2.36 -1.27)"/><path class="cls-3" d="M97.2,114.1a.93.93,0,0,1-.69-.27,1.08,1.08,0,0,1,0-1.47.9.9,0,0,1,.69-.28.94.94,0,0,1,.69.28,1.1,1.1,0,0,1,0,1.47A1,1,0,0,1,97.2,114.1Z" transform="translate(-2.36 -1.27)"/><path class="cls-3" d="M103,112.63l-.51-.36,1.3-2-2-.84.2-.55,2,.66.11-2.27h.57l.11,2.27,2-.66.19.55-1.95.84,1.3,2-.5.36-1.44-1.91Z" transform="translate(-2.36 -1.27)"/><path class="cls-3" d="M113.12,115.88l-3.94-10.44h.89L114,115.88Z" transform="translate(-2.36 -1.27)"/><path class="cls-3" d="M120.32,115.88l-3.94-10.44h.89l3.94,10.44Z" transform="translate(-2.36 -1.27)"/><path class="cls-3" d="M126,114.1a1,1,0,0,1-.7-.27,1.1,1.1,0,0,1,0-1.47.94.94,0,0,1,.7-.28.9.9,0,0,1,.68.28,1.08,1.08,0,0,1,0,1.47A.93.93,0,0,1,126,114.1Z" transform="translate(-2.36 -1.27)"/><path class="cls-3" d="M132.85,114.1a2.48,2.48,0,0,1-1-.2,2.22,2.22,0,0,1-.8-.59,2.76,2.76,0,0,1-.52-1,4.23,4.23,0,0,1-.18-1.29,3.44,3.44,0,0,1,.23-1.28,3,3,0,0,1,.58-1,2.66,2.66,0,0,1,.85-.61,2.47,2.47,0,0,1,1-.22,2.2,2.2,0,0,1,.94.2,3.33,3.33,0,0,1,.8.56h0l-.05-1.08v-2.24h1V114h-.82l-.08-.77h0a3.45,3.45,0,0,1-.85.64A2.18,2.18,0,0,1,132.85,114.1Zm.2-.82a2.21,2.21,0,0,0,1.64-.88v-2.9a2.48,2.48,0,0,0-.77-.53,1.89,1.89,0,0,0-.76-.16,1.73,1.73,0,0,0-.72.16,1.68,1.68,0,0,0-.57.46,2.08,2.08,0,0,0-.39.7,3.21,3.21,0,0,0,.3,2.56A1.53,1.53,0,0,0,133.05,113.28Z" transform="translate(-2.36 -1.27)"/><path class="cls-3" d="M138.37,116.47a2.26,2.26,0,0,1-.77-.12l.2-.78.26.06.27,0a1.45,1.45,0,0,0,1-.35,2.63,2.63,0,0,0,.6-.9l.18-.43-2.73-5.84h1l1.43,3.23.35.82c.12.3.25.59.37.87h0c.11-.28.21-.57.32-.86l.31-.83,1.27-3.23h.94l-2.57,6.31a4.57,4.57,0,0,1-.39.8,2.53,2.53,0,0,1-.51.65,2.2,2.2,0,0,1-.69.42A2.26,2.26,0,0,1,138.37,116.47Z" transform="translate(-2.36 -1.27)"/><path class="cls-3" d="M148.88,114.1a1.86,1.86,0,0,1-1.43-.52A2.25,2.25,0,0,1,147,112v-5.78h-2.08v-.8h3.06v6.66a1.24,1.24,0,0,0,.31.93,1.25,1.25,0,0,0,.84.28,2.61,2.61,0,0,0,1.1-.27l.25.74a6,6,0,0,1-.75.25A3.12,3.12,0,0,1,148.88,114.1Z" transform="translate(-2.36 -1.27)"/><path class="cls-3" d="M155,114v-5h-2.72v-.8H156V114Zm.38-7.06a.79.79,0,0,1-.56-.21.68.68,0,0,1-.23-.55.69.69,0,0,1,.23-.56.85.85,0,0,1,1.12,0,.69.69,0,0,1,.23.56.68.68,0,0,1-.23.55A.79.79,0,0,1,155.37,106.9Z" transform="translate(-2.36 -1.27)"/><path class="cls-3" d="M162.23,114.1a2.25,2.25,0,0,1-.9-.21,3.42,3.42,0,0,1-.91-.58h0l-.09.65h-.79v-8.54h1v2.32l0,1.13h0a3.14,3.14,0,0,1,.92-.65,2.5,2.5,0,0,1,1-.24,2.44,2.44,0,0,1,1,.21,2.06,2.06,0,0,1,.77.6,2.94,2.94,0,0,1,.46.94,4.56,4.56,0,0,1,.16,1.22,3.94,3.94,0,0,1-.22,1.33,3.37,3.37,0,0,1-.58,1,2.52,2.52,0,0,1-.85.61A2.46,2.46,0,0,1,162.23,114.1Zm-.15-.82a1.58,1.58,0,0,0,.71-.17,1.71,1.71,0,0,0,.56-.45,2,2,0,0,0,.37-.73,3.25,3.25,0,0,0,.13-1,4,4,0,0,0-.09-.88,2.06,2.06,0,0,0-.29-.67A1.38,1.38,0,0,0,163,109a1.53,1.53,0,0,0-.74-.16,1.88,1.88,0,0,0-.82.21,3.38,3.38,0,0,0-.9.67v2.9a2.64,2.64,0,0,0,.85.53A2.3,2.3,0,0,0,162.08,113.28Z" transform="translate(-2.36 -1.27)"/><path class="cls-3" d="M166.61,112.6l.47-.68a5.5,5.5,0,0,0,1,.57,3,3,0,0,0,1.22.25,1.67,1.67,0,0,0,1.09-.3.92.92,0,0,0,.37-.75.8.8,0,0,0-.29-.62,2.61,2.61,0,0,0-.7-.43c-.28-.13-.58-.26-.92-.38a5.85,5.85,0,0,1-.91-.42,2.55,2.55,0,0,1-.7-.59,1.32,1.32,0,0,1-.29-.87,1.59,1.59,0,0,1,.54-1.24,2.38,2.38,0,0,1,1.41-.57V105h.72v1.58a2.69,2.69,0,0,1,1.1.31,4.05,4.05,0,0,1,.81.6L171,108l-.39-.28a3.72,3.72,0,0,0-.39-.21,2.15,2.15,0,0,0-.45-.14,2.92,2.92,0,0,0-.54,0,1.54,1.54,0,0,0-1,.27.86.86,0,0,0-.36.73.68.68,0,0,0,.29.55,3.23,3.23,0,0,0,.7.39l.92.36a5.21,5.21,0,0,1,.92.44,2.47,2.47,0,0,1,.71.61,1.47,1.47,0,0,1,.28.91,1.67,1.67,0,0,1-.15.71,1.63,1.63,0,0,1-.43.58,2.67,2.67,0,0,1-.68.41,2.87,2.87,0,0,1-.85.21v1.75h-.72v-1.74a4.27,4.27,0,0,1-2.3-.94Z" transform="translate(-2.36 -1.27)"/><path class="cls-3" d="M174.69,109.74l-.3-2.7,0-1.32h1.32l0,1.32-.3,2.7Zm2.75,0-.3-2.7,0-1.32h1.31l0,1.32-.3,2.7Z" transform="translate(-2.36 -1.27)"/><path d="M182,116.07l-.54-.5a6.64,6.64,0,0,0,1.78-2.22,6.8,6.8,0,0,0,0-5.45,6.64,6.64,0,0,0-1.78-2.22l.54-.5a7,7,0,0,1,2,2.34,7,7,0,0,1,0,6.21A7.25,7.25,0,0,1,182,116.07Z" transform="translate(-2.36 -1.27)"/><path d="M34,129.07a7.37,7.37,0,0,1-2-2.34,7.06,7.06,0,0,1,0-6.21,7.16,7.16,0,0,1,2-2.34l.54.5a6.76,6.76,0,0,0-1.78,2.22,6.8,6.8,0,0,0,0,5.45,6.76,6.76,0,0,0,1.78,2.22Z" transform="translate(-2.36 -1.27)"/><path class="cls-4" d="M37.37,127l-1.27-5.83h1l.69,3.38q.09.42.15.81c0,.25.08.52.12.8h.05q.06-.42.15-.81l.18-.8.72-3h1l.69,3c.07.28.13.55.2.81a6.29,6.29,0,0,1,.16.8h0c.05-.28.09-.55.13-.8s.08-.53.13-.81l.7-3.38h.91L41.85,127H40.58l-.67-2.78c-.1-.41-.19-1-.29-1.73h0c-.09.74-.19,1.32-.28,1.73L38.64,127Z" transform="translate(-2.36 -1.27)"/><path class="cls-4" d="M47,127v-5H44.28v-.8H48V127Zm.38-7.06a.79.79,0,0,1-.56-.21.78.78,0,0,1,0-1.11.87.87,0,0,1,1.13,0,.78.78,0,0,1,0,1.11A.8.8,0,0,1,47.37,119.9Z" transform="translate(-2.36 -1.27)"/><path class="cls-4" d="M55.13,127.1a2.79,2.79,0,0,1-1.07-.17,1.8,1.8,0,0,1-.7-.49,2.09,2.09,0,0,1-.38-.76,4.35,4.35,0,0,1-.11-1v-2.76H51.23v-.74l1.68-.06.13-1.87h.81v1.87h2.87v.8H53.85v2.77a2.73,2.73,0,0,0,.08.69,1,1,0,0,0,.24.5,1,1,0,0,0,.45.31,2.09,2.09,0,0,0,.71.1,3.57,3.57,0,0,0,.76-.07,4.32,4.32,0,0,0,.64-.19l.22.72c-.26.09-.54.17-.83.24A4.37,4.37,0,0,1,55.13,127.1Z" transform="translate(-2.36 -1.27)"/><path class="cls-4" d="M58.71,127v-8.54h1v2.32l-.06,1.38h0a4.9,4.9,0,0,1,1-.81,2.22,2.22,0,0,1,1.21-.33,1.87,1.87,0,0,1,1.53.6,2.74,2.74,0,0,1,.48,1.76V127h-1v-3.49a2,2,0,0,0-.31-1.23,1.22,1.22,0,0,0-1-.4,1.88,1.88,0,0,0-.49.06,2.14,2.14,0,0,0-.44.2,3.88,3.88,0,0,0-.44.33c-.15.13-.31.29-.48.46V127Z" transform="translate(-2.36 -1.27)"/><path class="cls-4" d="M73.75,127v-5.83h.81l.09,1.38h0a3.55,3.55,0,0,1,1.13-1.12,2.92,2.92,0,0,1,2.08-.35,2.36,2.36,0,0,1,.55.18l-.23.86a3.25,3.25,0,0,0-.52-.16,2.68,2.68,0,0,0-.56,0,2.35,2.35,0,0,0-1.26.38,3.6,3.6,0,0,0-1.14,1.29V127Z" transform="translate(-2.36 -1.27)"/><path class="cls-4" d="M83.16,127.1a3.53,3.53,0,0,1-1.23-.2,3.07,3.07,0,0,1-1-.6,2.81,2.81,0,0,1-.67-1A3.31,3.31,0,0,1,80,124a3.23,3.23,0,0,1,.25-1.27,2.74,2.74,0,0,1,.66-1,2.87,2.87,0,0,1,1-.61A3,3,0,0,1,83,121a3.06,3.06,0,0,1,1.12.2,2.34,2.34,0,0,1,.84.56,2.42,2.42,0,0,1,.52.86,3.33,3.33,0,0,1,.18,1.12c0,.11,0,.22,0,.32a1.88,1.88,0,0,1,0,.28H81a2,2,0,0,0,.72,1.49,2.38,2.38,0,0,0,1.55.5,2.83,2.83,0,0,0,1-.15,3.88,3.88,0,0,0,.82-.4l.36.65a4.57,4.57,0,0,1-1,.49A3.55,3.55,0,0,1,83.16,127.1ZM83,121.76a2,2,0,0,0-.69.12,1.85,1.85,0,0,0-.59.35,1.75,1.75,0,0,0-.45.55,2.58,2.58,0,0,0-.25.77h3.72a1.94,1.94,0,0,0-.52-1.34A1.67,1.67,0,0,0,83,121.76Z" transform="translate(-2.36 -1.27)"/><path class="cls-4" d="M87.51,129.42v-8.29h.82l.08.74h0a3.44,3.44,0,0,1,.94-.63,2.48,2.48,0,0,1,1.07-.26,2.41,2.41,0,0,1,1,.21,2.11,2.11,0,0,1,.76.6,2.75,2.75,0,0,1,.46.94,4.58,4.58,0,0,1,.16,1.23,3.9,3.9,0,0,1-.22,1.33,3.23,3.23,0,0,1-.58,1,2.52,2.52,0,0,1-.85.61,2.47,2.47,0,0,1-1,.21,2.33,2.33,0,0,1-.88-.19,3.18,3.18,0,0,1-.86-.56h0l0,1.1v2Zm2.55-3.14a1.6,1.6,0,0,0,1.29-.62,2.56,2.56,0,0,0,.51-1.7,4,4,0,0,0-.1-.88,1.86,1.86,0,0,0-.29-.67A1.43,1.43,0,0,0,91,122a1.6,1.6,0,0,0-.75-.16,1.92,1.92,0,0,0-.82.21,3.19,3.19,0,0,0-.89.67v2.9a2.61,2.61,0,0,0,.84.53A2.25,2.25,0,0,0,90.06,126.28Z" transform="translate(-2.36 -1.27)"/><path class="cls-4" d="M97.2,127.1a2.9,2.9,0,0,1-1.1-.2,2.69,2.69,0,0,1-.92-.59,3,3,0,0,1-.63-1,3.3,3.3,0,0,1-.23-1.29,3.37,3.37,0,0,1,.23-1.31,3,3,0,0,1,.63-1,2.45,2.45,0,0,1,.92-.6,2.91,2.91,0,0,1,1.1-.21,2.86,2.86,0,0,1,1.09.21,2.45,2.45,0,0,1,.92.6,2.67,2.67,0,0,1,.63,1,3.36,3.36,0,0,1,.24,1.31,3.3,3.3,0,0,1-.24,1.29,2.69,2.69,0,0,1-1.55,1.55A2.85,2.85,0,0,1,97.2,127.1Zm0-.81a1.88,1.88,0,0,0,.76-.16,1.75,1.75,0,0,0,.59-.46,2,2,0,0,0,.37-.7,3.06,3.06,0,0,0,0-1.83,2,2,0,0,0-.37-.72A1.75,1.75,0,0,0,98,122a1.73,1.73,0,0,0-.76-.16,1.77,1.77,0,0,0-.77.16,1.71,1.71,0,0,0-.58.46,2.06,2.06,0,0,0-.38.72,3.29,3.29,0,0,0,0,1.83,2.06,2.06,0,0,0,.38.7,1.71,1.71,0,0,0,.58.46A1.93,1.93,0,0,0,97.2,126.29Z" transform="translate(-2.36 -1.27)"/><path class="cls-4" d="M102.55,127v-5.83h.81l.09,1.38h0a3.55,3.55,0,0,1,1.13-1.12,2.77,2.77,0,0,1,1.48-.41,2.91,2.91,0,0,1,.6.06,2.36,2.36,0,0,1,.55.18l-.23.86a3.59,3.59,0,0,0-.52-.16,2.75,2.75,0,0,0-.56,0,2.35,2.35,0,0,0-1.26.38,3.51,3.51,0,0,0-1.14,1.29V127Z" transform="translate(-2.36 -1.27)"/><path class="cls-4" d="M112.72,127.1a2.74,2.74,0,0,1-1.06-.17,1.8,1.8,0,0,1-.7-.49,1.94,1.94,0,0,1-.38-.76,4.35,4.35,0,0,1-.11-1v-2.76h-1.65v-.74l1.68-.06.14-1.87h.81v1.87h2.87v.8h-2.87v2.77a3.34,3.34,0,0,0,.07.69,1.23,1.23,0,0,0,.24.5,1.07,1.07,0,0,0,.46.31,2.09,2.09,0,0,0,.71.1,3.42,3.42,0,0,0,.75-.07,4.45,4.45,0,0,0,.65-.19l.22.72c-.27.09-.54.17-.84.24A4.25,4.25,0,0,1,112.72,127.1Z" transform="translate(-2.36 -1.27)"/><path d="M117.2,129.07l-.54-.5a6.64,6.64,0,0,0,1.78-2.22,6.8,6.8,0,0,0,0-5.45,6.64,6.64,0,0,0-1.78-2.22l.54-.5a7,7,0,0,1,2,2.34,7,7,0,0,1,0,6.21A7.25,7.25,0,0,1,117.2,129.07Z" transform="translate(-2.36 -1.27)"/><path d="M124.4,129.07l-.54-.5a6.64,6.64,0,0,0,1.78-2.22,6.8,6.8,0,0,0,0-5.45,6.64,6.64,0,0,0-1.78-2.22l.54-.5a7,7,0,0,1,2,2.34,7,7,0,0,1,0,6.21A7.25,7.25,0,0,1,124.4,129.07Z" transform="translate(-2.36 -1.27)"/></g></g></svg>